<?xml version="1.0" encoding="UTF-8" ?>
<!DOCTYPE svg PUBLIC "-//W3C//DTD SVG 1.1//EN" "http://www.w3.org/Graphics/SVG/1.1/DTD/svg11.dtd">
<svg width="686pt" height="224pt" viewBox="0 0 686 224" version="1.1" xmlns="http://www.w3.org/2000/svg">
<path fill="#ffffff" stroke="#ffffff" stroke-width="0.09375" opacity="1.00" d=" M 26.3 30.2 C 29.3 27.0 34.1 27.6 38.1 27.3 C 39.4 28.9 40.6 30.7 42.2 32.1 C 46.5 31.1 50.4 28.5 55.0 28.9 C 59.7 29.0 64.2 31.0 67.8 34.1 C 70.6 35.3 73.6 36.1 75.8 38.2 C 79.2 41.9 81.0 46.9 80.9 51.9 C 80.9 58.3 80.6 64.6 80.9 71.0 C 80.9 75.1 81.4 79.6 79.2 83.3 C 77.0 87.1 72.9 89.1 70.1 92.4 C 69.6 93.9 69.9 95.8 71.4 96.8 C 74.2 97.6 77.3 97.4 80.2 97.5 C 80.4 103.4 79.9 109.2 79.9 115.1 C 79.9 119.5 81.0 123.8 81.5 128.2 C 82.1 132.9 81.1 137.6 80.3 142.3 C 84.8 145.1 90.0 146.5 95.3 147.1 C 102.4 147.9 109.1 150.7 116.1 152.1 C 120.3 153.1 124.8 151.8 129.0 152.9 C 130.4 154.2 131.0 156.0 131.6 157.7 C 134.2 164.8 135.0 172.5 134.1 180.0 C 133.7 183.6 130.0 185.4 127.4 187.4 C 123.0 190.5 117.3 189.9 112.2 189.5 C 102.6 188.4 92.7 186.8 84.6 181.3 C 80.8 178.9 77.9 175.3 74.1 172.8 C 70.2 170.0 64.1 171.5 61.5 175.5 C 59.3 179.0 59.1 183.4 56.9 186.9 C 54.3 189.0 50.5 189.6 47.3 188.6 C 42.9 187.4 38.9 185.2 34.7 183.3 C 34.5 181.6 34.3 179.9 34.0 178.3 C 27.8 176.5 21.9 173.2 17.6 168.4 C 18.2 162.0 21.7 156.4 22.3 150.0 C 22.7 144.3 22.3 138.6 23.1 133.0 C 23.9 126.4 23.3 119.7 23.4 113.0 C 23.4 103.7 23.4 94.3 23.3 85.0 C 23.3 80.3 23.1 75.5 22.1 70.9 C 20.1 63.1 21.6 55.1 21.3 47.2 C 20.0 46.3 18.7 45.4 17.4 44.5 C 19.9 39.5 22.6 34.5 26.3 30.2 M 27.6 31.2 C 31.0 31.5 34.5 31.7 37.9 31.8 C 37.8 31.1 37.5 29.7 37.4 29.0 C 34.1 29.6 30.8 30.3 27.6 31.2 M 48.0 31.2 C 49.6 35.5 50.0 40.0 50.1 44.5 C 54.4 41.2 57.6 36.8 59.1 31.5 C 55.4 31.2 51.7 31.2 48.0 31.2 M 59.2 33.9 C 61.3 35.1 63.6 34.9 65.8 33.9 C 63.6 33.8 61.4 33.8 59.2 33.9 M 27.7 34.4 C 26.3 34.9 24.6 35.7 24.2 37.4 C 23.3 40.8 23.6 44.5 23.6 48.0 C 23.6 53.7 23.0 59.4 23.7 65.1 C 24.2 69.0 24.7 73.0 24.9 77.0 C 25.3 88.3 25.7 99.7 25.3 111.1 C 30.2 111.2 35.2 111.3 40.1 111.1 C 41.3 94.1 41.0 76.9 41.6 59.8 C 42.0 51.2 41.6 42.6 41.6 33.9 C 37.0 33.7 32.2 33.0 27.7 34.4 M 43.5 35.0 C 43.6 39.3 43.8 43.6 43.9 47.9 C 44.7 47.9 46.3 47.8 47.2 47.8 C 47.3 43.6 47.4 39.3 47.4 35.1 C 46.4 35.1 44.5 35.0 43.5 35.0 M 61.7 37.8 C 64.4 41.7 67.6 45.2 69.6 49.6 C 70.6 51.9 69.6 54.5 68.6 56.7 C 66.6 60.6 62.4 62.5 59.6 65.6 C 58.4 71.6 59.3 77.8 59.2 83.9 C 62.5 83.8 66.0 84.0 69.2 83.0 C 72.0 82.0 72.6 78.7 72.8 76.1 C 73.0 69.7 72.5 63.4 72.9 57.0 C 73.3 50.5 73.4 44.0 72.4 37.6 C 68.8 37.7 65.3 37.7 61.7 37.8 M 49.8 48.7 C 48.3 52.7 48.5 57.3 49.6 61.4 C 56.5 66.8 67.3 60.2 67.7 52.1 C 66.4 46.7 62.4 42.7 59.3 38.4 C 56.2 41.9 52.4 44.8 49.8 48.7 M 75.5 41.7 C 75.2 51.5 74.4 61.3 75.1 71.0 C 75.2 73.8 75.4 76.7 74.4 79.4 C 73.4 81.9 71.9 84.2 70.6 86.5 C 72.6 84.2 74.9 81.9 75.5 78.7 C 76.0 75.2 75.8 71.6 75.8 68.0 C 75.6 59.2 76.1 50.5 75.5 41.7 M 43.9 50.1 C 43.5 62.7 43.6 75.3 43.0 87.9 C 43.6 87.9 44.7 87.9 45.3 87.9 C 45.3 79.6 44.4 71.2 45.8 62.9 C 46.6 58.7 46.9 54.4 47.0 50.1 C 46.3 50.1 44.7 50.1 43.9 50.1 M 47.6 63.5 C 46.9 71.2 47.1 78.9 47.3 86.6 C 49.0 86.6 50.7 86.7 52.4 86.7 C 51.1 86.0 49.7 85.4 48.3 84.7 C 48.3 77.6 48.5 70.5 47.6 63.5 M 51.2 84.1 C 53.0 77.5 52.8 70.6 51.1 64.0 C 49.9 70.6 50.0 77.5 51.2 84.1 M 54.3 65.6 C 54.5 71.5 54.6 77.4 54.6 83.3 C 55.2 83.2 56.4 83.2 57.1 83.2 C 57.1 77.4 57.1 71.6 57.0 65.7 C 56.3 65.7 55.0 65.7 54.3 65.6 M 53.3 86.3 C 58.3 87.4 63.5 87.7 68.5 87.0 C 63.6 85.4 58.4 85.0 53.3 86.3 M 42.9 89.9 C 42.9 93.5 42.5 97.2 43.1 100.9 C 44.2 104.5 47.4 107.2 48.0 111.1 C 48.8 114.3 47.6 117.4 46.5 120.4 C 48.6 120.7 50.8 121.0 53.0 121.2 C 53.4 118.5 53.6 115.8 54.3 113.1 C 55.5 109.7 58.7 107.5 60.4 104.4 C 60.9 102.9 61.1 101.2 61.4 99.6 C 56.7 99.3 52.1 99.1 47.4 98.7 C 47.4 95.7 47.4 92.7 47.4 89.7 C 45.9 89.7 44.4 89.8 42.9 89.9 M 49.7 89.6 C 49.7 92.1 49.7 94.7 49.7 97.2 C 52.5 97.2 55.4 97.2 58.3 97.2 C 58.3 94.6 58.4 92.1 58.4 89.5 C 55.5 89.5 52.6 89.5 49.7 89.6 M 60.2 89.7 C 60.6 94.9 63.1 99.7 63.4 104.8 C 61.7 108.1 58.2 110.1 56.6 113.5 C 55.8 116.2 55.9 119.1 55.9 122.0 C 56.0 129.3 56.0 136.6 55.6 143.9 C 56.3 144.3 57.6 145.1 58.2 145.5 C 58.7 137.7 58.3 129.8 58.2 121.9 C 58.3 118.8 58.1 115.5 59.7 112.7 C 61.4 110.2 64.3 109.0 66.8 107.6 C 67.4 101.7 67.4 95.8 67.3 89.8 C 65.0 89.8 62.6 89.7 60.2 89.7 M 69.8 99.3 C 69.6 102.1 69.5 105.0 69.4 107.8 C 71.9 110.1 74.8 112.5 75.3 116.1 C 76.4 123.0 74.7 129.9 75.4 136.8 C 75.8 140.1 77.0 143.2 78.0 146.2 C 78.4 146.4 79.0 146.8 79.3 147.0 C 78.5 142.6 78.5 138.0 79.3 133.5 C 79.9 129.6 79.1 125.7 78.3 121.8 C 76.9 114.4 77.9 106.8 78.7 99.4 C 75.8 99.4 72.8 99.4 69.8 99.3 M 42.1 106.2 C 42.3 110.2 42.5 114.2 42.8 118.2 C 44.0 117.8 45.3 117.5 46.6 117.2 C 46.1 113.5 45.5 109.9 45.0 106.2 C 44.3 106.2 42.8 106.2 42.1 106.2 M 61.2 114.4 C 60.0 118.6 60.5 123.1 60.5 127.3 C 64.1 127.8 67.9 129.0 71.4 127.6 C 73.5 126.1 73.6 123.3 73.7 121.0 C 73.6 117.9 73.2 114.3 70.9 112.0 C 68.0 109.1 62.4 110.6 61.2 114.4 M 25.6 113.6 C 25.7 116.4 25.7 119.2 25.8 121.9 C 31.0 123.2 36.1 124.6 41.2 126.1 C 40.9 121.8 40.6 117.5 40.2 113.2 C 35.3 113.4 30.5 113.5 25.6 113.6 M 43.1 121.6 C 43.2 128.7 43.3 135.8 43.3 142.8 C 46.3 143.6 49.3 144.4 52.3 145.2 C 53.9 138.0 53.9 130.6 53.7 123.3 C 50.2 122.8 46.7 122.2 43.1 121.6 M 25.2 124.6 C 30.3 127.5 35.9 129.0 41.7 129.5 C 36.7 126.4 31.0 125.1 25.2 124.6 M 25.2 128.7 C 30.5 131.5 36.4 133.2 42.4 133.6 C 37.2 130.6 31.2 129.1 25.2 128.7 M 60.4 130.3 C 60.2 130.8 59.9 132.0 59.7 132.5 C 62.0 132.4 64.4 132.4 66.7 132.3 C 65.6 134.7 64.1 136.8 62.3 138.6 C 65.0 138.7 67.7 139.2 70.4 138.6 C 73.7 136.8 72.9 132.4 73.6 129.3 C 69.2 129.9 64.8 130.2 60.4 130.3 M 26.3 132.8 C 31.0 135.7 36.4 137.0 41.8 137.4 C 37.1 134.6 31.7 133.2 26.3 132.8 M 24.3 135.2 C 24.7 147.2 23.7 159.3 25.2 171.3 C 25.8 159.3 25.7 147.2 25.6 135.2 C 25.3 135.2 24.6 135.2 24.3 135.2 M 26.5 137.1 C 31.1 139.9 36.4 141.3 41.8 141.5 C 37.3 138.4 31.9 137.0 26.5 137.1 M 60.2 139.6 C 60.2 140.1 60.2 141.2 60.3 141.7 C 65.8 142.8 71.2 144.1 76.7 145.4 C 75.9 144.1 75.2 142.7 74.2 141.5 C 69.6 140.5 64.8 140.7 60.2 139.6 M 27.2 140.2 C 27.2 140.8 27.3 142.0 27.3 142.5 C 32.1 143.6 36.8 144.8 41.7 145.4 C 37.2 142.8 32.2 141.5 27.2 140.2 M 27.1 144.1 C 27.2 144.7 27.5 145.8 27.6 146.4 C 32.2 147.7 36.9 148.9 41.6 149.2 C 37.3 146.4 32.2 145.1 27.1 144.1 M 60.0 144.3 C 61.8 146.1 63.9 148.0 66.5 148.7 C 75.2 151.5 84.3 153.0 93.2 155.0 C 100.9 156.8 108.4 159.4 116.2 161.2 C 120.4 162.3 124.6 161.0 128.6 159.9 C 128.7 158.3 128.7 156.6 128.8 155.0 C 124.0 155.1 119.2 155.3 114.6 154.2 C 105.7 152.1 97.1 149.1 88.1 147.9 C 83.5 147.3 78.9 148.9 74.5 147.4 C 69.7 146.0 65.0 144.5 60.0 144.3 M 43.3 145.1 C 43.4 152.0 43.4 158.9 43.4 165.8 C 49.5 167.2 55.6 168.7 61.7 170.4 C 61.5 163.1 61.2 155.9 61.2 148.7 C 55.2 147.8 49.2 146.9 43.3 145.1 M 27.5 149.1 C 31.9 151.5 36.7 152.9 41.7 153.5 C 37.6 150.4 32.5 149.1 27.5 149.1 M 63.7 150.0 C 63.4 156.4 63.7 162.9 64.5 169.3 C 68.1 169.4 72.1 168.7 75.3 170.8 C 78.4 172.9 80.9 175.9 83.9 178.2 C 94.3 186.5 108.4 187.0 121.2 187.5 C 121.3 179.9 121.4 172.4 121.2 164.8 C 113.9 162.6 106.3 161.0 98.9 158.9 C 87.3 155.4 75.2 153.9 63.7 150.0 M 27.7 152.5 C 27.4 159.8 27.4 167.1 27.5 174.4 C 32.0 175.3 36.5 176.0 41.1 176.5 C 41.3 169.7 41.3 162.8 41.1 156.0 C 36.7 154.7 32.2 153.5 27.7 152.5 M 19.3 168.0 C 20.4 168.3 21.5 168.6 22.5 168.9 C 22.5 164.9 22.6 160.9 22.8 156.9 C 21.9 160.7 20.7 164.4 19.3 168.0 M 123.4 163.1 C 123.6 171.0 123.0 178.9 124.2 186.8 C 127.3 179.0 127.4 170.5 129.0 162.3 C 127.2 162.6 125.3 162.8 123.4 163.1 M 128.6 184.1 C 129.8 182.5 131.7 181.1 132.0 178.9 C 132.6 173.5 131.9 168.0 131.4 162.6 C 129.6 169.6 128.5 176.9 128.6 184.1 M 43.8 167.5 C 43.5 170.6 43.3 173.7 43.1 176.8 C 43.9 176.8 45.3 176.6 46.1 176.6 C 45.4 173.5 44.7 170.5 43.8 167.5 M 46.9 169.0 C 47.2 171.4 47.4 173.9 47.6 176.3 C 48.8 174.2 50.0 172.0 51.1 169.9 C 49.7 169.6 48.3 169.3 46.9 169.0 M 48.0 178.9 C 50.3 181.2 52.6 183.5 55.0 185.7 C 56.6 181.3 58.2 177.0 60.2 172.9 C 58.1 172.0 56.0 171.2 53.9 170.4 C 51.9 173.3 50.0 176.1 48.0 178.9 M 36.8 178.4 C 36.8 179.3 36.8 181.2 36.8 182.1 C 41.8 184.4 46.9 186.5 52.2 187.9 C 50.2 184.9 48.4 181.5 45.2 179.8 C 42.5 178.7 39.6 178.8 36.8 178.4 Z" />
<path fill="#ffffff" stroke="#ffffff" stroke-width="0.09375" opacity="1.00" d=" M 587.2 30.2 C 589.1 30.2 590.9 30.2 592.7 30.2 C 592.7 36.6 592.6 43.0 592.9 49.5 C 608.7 49.4 623.8 57.3 634.1 69.0 C 643.5 78.9 649.0 92.3 649.4 105.9 C 655.8 106.0 662.1 106.1 668.5 106.3 C 668.6 107.9 668.7 109.5 668.8 111.0 C 662.4 111.4 656.0 111.5 649.5 111.4 C 648.8 137.8 628.2 161.9 602.4 167.2 C 599.2 167.8 596.0 168.0 592.8 168.2 C 592.7 174.7 592.7 181.1 592.5 187.6 C 590.8 187.6 589.1 187.6 587.4 187.6 C 587.2 181.1 587.2 174.7 587.1 168.2 C 557.6 167.8 531.1 141.4 530.5 111.8 C 524.2 111.6 517.8 111.6 511.5 111.6 C 511.4 109.8 511.3 107.9 511.2 106.1 C 517.6 105.9 524.1 105.9 530.5 105.9 C 530.9 76.4 557.4 49.6 587.1 49.5 C 587.3 43.0 587.2 36.6 587.2 30.2 M 572.8 57.9 C 558.2 62.6 546.1 74.1 540.3 88.3 C 538.0 93.9 536.9 99.8 536.0 105.8 C 539.5 105.8 542.9 105.7 546.3 105.6 C 547.0 100.4 547.8 95.1 550.2 90.3 C 554.7 81.0 562.5 73.3 571.8 68.8 C 576.4 66.6 581.6 65.8 586.7 65.2 C 586.8 62.0 586.8 58.7 586.9 55.4 C 582.2 55.8 577.4 56.4 572.8 57.9 M 592.8 55.4 C 592.8 58.7 593.0 62.0 593.2 65.2 C 597.0 65.7 600.9 66.1 604.6 67.4 C 609.8 69.3 614.3 72.5 618.9 75.4 C 621.2 73.1 623.4 70.7 625.6 68.3 C 621.0 64.8 616.2 61.4 610.8 59.2 C 605.1 56.8 598.9 55.7 592.8 55.4 M 580.2 70.4 C 579.2 71.9 578.3 73.4 577.4 74.9 C 576.2 74.3 575.0 73.6 573.8 73.0 C 571.8 73.9 569.8 74.8 567.7 75.7 C 567.5 77.2 567.2 78.8 567.0 80.3 C 564.2 81.1 560.6 81.3 559.1 84.2 C 558.3 86.1 558.3 88.3 558.1 90.4 C 556.2 91.7 553.5 92.7 552.9 95.1 C 552.0 97.5 553.1 100.0 553.7 102.3 C 552.7 103.5 551.7 104.6 550.8 105.7 C 560.2 106.0 569.6 105.6 579.0 105.8 C 581.8 105.7 583.9 107.6 586.0 109.1 C 583.2 110.6 580.3 111.9 577.1 111.7 C 568.3 111.7 559.6 111.4 550.8 111.8 C 551.8 112.8 552.8 113.8 553.9 114.8 C 553.4 116.4 552.6 118.0 552.5 119.8 C 552.7 121.8 553.4 123.8 554.0 125.8 C 555.3 125.8 556.5 125.9 557.8 126.0 C 558.1 128.4 558.0 130.8 558.9 133.1 C 560.3 135.8 563.8 136.0 566.3 136.9 C 567.5 139.2 568.2 142.2 570.8 143.4 C 573.0 144.5 575.6 143.6 577.9 143.3 C 578.4 144.5 578.8 145.6 579.3 146.8 C 581.9 147.2 584.5 147.6 587.1 147.9 C 587.3 138.9 587.1 129.9 587.1 120.9 C 586.9 117.9 588.4 115.2 590.0 112.8 C 591.6 115.3 593.0 117.9 592.9 120.9 C 592.9 129.9 592.7 139.0 592.9 148.0 C 595.4 147.6 597.9 147.1 600.4 146.7 C 601.0 145.6 601.6 144.5 602.2 143.4 C 604.7 143.7 607.6 144.7 609.8 143.1 C 611.5 141.6 612.5 139.6 613.8 137.7 C 616.9 136.3 619.8 134.5 622.3 132.2 C 621.9 130.2 621.5 128.2 621.1 126.2 C 622.6 126.1 624.1 125.9 625.7 125.8 C 626.5 123.5 627.3 121.2 628.2 119.0 C 627.3 117.7 626.4 116.4 625.5 115.2 C 626.8 114.1 628.2 113.0 629.5 111.9 C 620.6 111.4 611.8 111.7 602.9 111.7 C 599.7 111.9 596.7 110.6 594.0 109.1 C 596.1 107.6 598.2 105.7 601.0 105.8 C 610.3 105.6 619.7 105.9 629.1 105.9 C 628.0 104.7 626.8 103.4 625.7 102.2 C 626.5 101.1 627.3 100.0 628.2 98.8 C 627.4 96.5 626.6 94.2 625.8 91.9 C 624.3 91.8 622.9 91.7 621.5 91.6 C 621.5 88.7 622.3 85.3 620.1 83.0 C 618.3 81.5 615.8 81.1 613.7 80.3 C 612.5 78.2 611.8 75.6 609.5 74.4 C 607.2 73.1 604.5 74.1 602.1 74.4 C 601.6 73.1 601.1 71.8 600.6 70.5 C 598.0 70.3 595.4 70.0 592.9 69.8 C 592.6 80.7 593.1 91.6 592.6 102.4 C 591.9 102.6 590.6 103.1 590.0 103.3 C 589.4 103.1 588.1 102.6 587.4 102.4 C 586.8 91.5 587.4 80.7 587.1 69.8 C 584.8 70.0 582.5 70.2 580.2 70.4 M 622.7 79.5 C 626.0 83.9 629.3 88.5 631.2 93.7 C 632.6 97.4 633.0 101.3 633.6 105.2 C 636.9 105.4 640.2 105.4 643.5 105.5 C 642.8 97.6 641.0 89.8 637.1 82.9 C 635.0 79.3 633.0 75.2 629.2 73.1 C 626.7 74.9 624.8 77.3 622.7 79.5 M 536.5 111.8 C 537.0 118.1 538.1 124.5 540.7 130.2 C 543.0 135.7 546.5 140.5 550.2 145.0 C 552.5 142.7 554.9 140.4 557.2 138.0 C 553.8 133.5 550.5 128.8 548.6 123.5 C 547.3 119.8 546.9 115.8 546.4 111.9 C 543.1 111.9 539.8 111.8 536.5 111.8 M 633.6 111.9 C 633.0 129.4 620.1 145.1 603.8 150.6 C 600.3 151.7 596.7 152.3 593.1 152.9 C 593.2 156.0 593.2 159.1 593.3 162.2 C 598.3 161.6 603.3 160.9 608.1 159.2 C 615.5 156.7 622.2 152.2 627.8 146.8 C 637.1 137.6 642.6 124.8 643.4 111.8 C 640.1 111.8 636.9 111.8 633.6 111.9 M 554.3 148.9 C 563.3 157.0 575.0 161.9 587.2 162.3 C 587.2 159.0 587.1 155.7 587.0 152.5 C 582.0 151.8 576.9 151.0 572.3 148.8 C 568.4 147.0 565.1 144.1 561.1 142.4 C 558.4 144.1 556.4 146.6 554.3 148.9 Z" />
<path fill="#ffffff" stroke="#ffffff" stroke-width="0.09375" opacity="1.00" d=" M 541.3 56.3 C 549.1 48.8 558.8 43.8 568.8 40.0 C 568.7 42.2 568.7 44.4 568.7 46.6 C 549.8 52.9 534.0 68.3 528.1 87.4 C 526.0 87.5 523.9 87.6 521.7 87.7 C 524.9 75.5 532.4 64.9 541.3 56.3 Z" />
<path fill="#ffffff" stroke="#ffffff" stroke-width="0.09375" opacity="1.00" d=" M 611.1 40.6 C 621.9 43.5 631.7 49.5 639.6 57.4 C 648.2 65.7 655.0 76.1 658.2 87.7 C 656.1 87.6 654.0 87.5 651.9 87.4 C 646.1 68.3 630.2 52.9 611.3 46.7 C 611.3 44.6 611.2 42.6 611.1 40.6 Z" />
<path fill="#ffffff" stroke="#ffffff" stroke-width="0.09375" opacity="1.00" d=" M 53.5 48.3 C 56.0 47.4 59.1 48.4 60.3 50.9 C 61.4 53.2 61.3 56.6 59.1 58.2 C 56.3 59.8 52.3 58.9 50.7 56.1 C 49.0 53.4 50.5 49.4 53.5 48.3 M 54.1 50.2 C 52.7 51.3 52.1 53.1 51.9 54.8 C 53.4 56.5 55.5 57.0 57.6 57.0 C 58.4 55.0 58.9 53.0 59.5 51.0 C 57.7 50.7 55.9 50.3 54.1 50.2 Z" />
<path fill="#ffffff" stroke="#ffffff" stroke-width="0.09375" opacity="1.00" d=" M 143.1 53.2 C 150.2 49.8 158.5 49.2 166.2 51.0 C 174.3 53.0 180.6 59.3 184.4 66.5 C 185.6 68.8 186.9 71.8 185.7 74.4 C 182.5 76.9 178.4 78.1 174.7 79.7 C 171.4 81.0 168.0 82.8 164.4 82.7 C 162.0 81.0 160.3 78.6 158.2 76.7 C 157.2 75.6 155.7 75.9 154.5 76.4 C 152.2 79.0 151.6 82.6 151.2 85.9 C 150.7 92.0 150.7 98.2 151.4 104.3 C 151.8 107.2 152.3 110.4 154.2 112.8 C 155.2 114.1 157.1 114.5 158.6 114.0 C 160.0 113.0 161.2 111.8 162.4 110.7 C 160.1 110.0 157.6 109.5 155.4 108.5 C 154.0 105.5 154.3 102.2 154.1 99.0 C 154.2 95.4 153.9 91.6 155.2 88.1 C 157.3 86.3 160.4 86.7 162.9 86.5 C 171.5 86.6 180.1 86.2 188.6 87.3 C 189.2 96.5 189.7 106.0 187.9 115.1 C 186.0 125.2 179.3 134.7 169.4 138.2 C 158.5 142.0 145.2 140.6 136.5 132.5 C 128.6 125.2 125.3 114.4 124.3 104.0 C 123.3 93.5 123.7 82.8 126.9 72.7 C 129.5 64.4 135.1 56.8 143.1 53.2 M 141.7 56.7 C 137.8 59.8 134.1 63.3 131.6 67.6 C 127.7 74.2 127.3 82.1 126.4 89.5 C 125.7 95.9 126.7 102.3 127.4 108.6 C 128.5 115.5 130.6 122.5 135.4 127.6 C 138.9 131.3 142.6 135.1 147.6 136.4 C 157.6 139.4 169.9 138.2 177.2 130.2 C 180.7 126.8 183.8 122.7 184.8 117.8 C 186.9 108.5 187.5 98.8 186.7 89.3 C 176.9 88.7 167.0 89.1 157.1 89.0 C 157.8 95.0 157.8 101.0 157.1 106.9 C 159.9 107.0 162.6 107.0 165.4 107.1 C 164.5 109.3 163.8 111.6 162.5 113.5 C 161.0 115.4 158.9 116.7 157.0 118.1 C 155.0 116.3 153.0 114.7 151.4 112.6 C 150.0 110.2 149.6 107.5 149.0 104.8 C 148.3 100.6 147.2 96.4 148.0 92.1 C 148.9 87.1 149.1 81.9 151.2 77.2 C 152.1 75.1 154.0 73.4 156.2 72.8 C 160.1 73.8 162.1 77.9 165.3 79.9 C 172.2 79.3 178.2 75.4 184.5 72.8 C 182.1 65.8 177.9 59.2 171.3 55.7 C 166.3 52.5 160.2 53.4 154.6 53.2 C 150.1 53.1 145.3 53.8 141.7 56.7 Z" />
<path fill="#ffffff" stroke="#ffffff" stroke-width="0.09375" opacity="1.00" d=" M 329.8 51.0 C 336.6 49.5 344.1 49.6 350.6 52.4 C 357.7 55.5 363.1 61.8 366.1 68.8 C 366.7 70.6 367.6 73.3 365.7 74.6 C 362.7 77.0 359.0 78.1 355.6 79.6 C 352.3 80.8 349.0 82.6 345.4 82.7 C 342.3 81.1 340.7 77.7 337.8 75.9 C 337.2 76.0 336.0 76.1 335.4 76.1 C 332.5 78.9 332.2 83.2 331.8 87.0 C 331.4 93.8 331.2 100.7 332.5 107.3 C 333.1 109.8 333.9 112.7 336.4 113.9 C 339.1 115.1 340.9 112.3 342.7 110.8 C 340.6 110.1 338.3 109.6 336.2 108.5 C 335.1 107.4 335.0 105.6 334.8 104.1 C 334.4 98.5 334.9 92.8 335.4 87.3 C 343.9 86.2 352.5 86.6 361.1 86.5 C 363.6 86.7 366.7 86.4 368.8 88.1 C 369.8 90.6 369.7 93.3 369.8 95.9 C 369.7 104.0 369.9 112.4 367.0 120.1 C 364.2 128.3 357.8 135.5 349.5 138.4 C 342.6 140.7 335.0 140.8 328.1 138.8 C 320.1 136.5 313.7 130.3 310.0 123.1 C 306.5 116.3 305.1 108.6 304.6 101.0 C 304.1 90.9 304.8 80.6 308.1 71.0 C 311.4 61.3 319.6 53.2 329.8 51.0 M 326.4 54.4 C 321.2 56.4 316.7 60.0 313.8 64.8 C 308.2 73.4 307.2 84.0 306.9 94.0 C 306.8 105.8 308.2 118.6 315.9 128.2 C 323.1 136.7 335.4 139.5 346.0 136.8 C 354.9 135.4 361.9 128.1 364.8 119.8 C 368.4 109.9 366.6 99.3 367.0 89.0 C 357.0 89.0 347.0 89.0 337.0 89.0 C 337.0 95.0 337.0 101.0 337.0 106.9 C 339.8 107.0 342.7 107.0 345.5 107.1 C 344.5 110.3 344.4 114.5 341.0 116.1 C 338.3 117.7 335.3 116.2 332.5 115.7 C 331.5 112.3 330.4 109.0 329.6 105.5 C 328.7 101.4 328.8 97.1 328.8 92.9 C 328.9 88.0 329.2 82.9 331.3 78.3 C 332.4 75.6 334.8 73.4 337.8 72.9 C 340.7 74.7 342.7 77.7 345.5 79.8 C 347.6 80.1 349.6 79.2 351.6 78.6 C 355.9 77.0 360.1 75.1 364.4 73.5 C 363.1 65.4 357.6 58.3 350.3 54.7 C 346.8 53.0 342.7 53.3 338.9 53.3 C 334.7 53.3 330.4 52.8 326.4 54.4 Z" />
<path fill="#ffffff" stroke="#ffffff" stroke-width="0.09375" opacity="1.00" d=" M 93.8 52.9 C 98.5 51.6 103.3 52.0 108.1 52.0 C 111.2 52.2 114.7 51.7 117.4 53.6 C 118.4 56.3 118.4 59.2 118.4 62.0 C 118.2 78.3 118.4 94.7 118.3 111.0 C 118.3 119.9 118.7 128.8 117.7 137.7 C 111.8 138.3 105.9 138.6 99.9 138.4 C 97.9 138.3 95.7 138.2 93.8 137.2 C 92.2 135.2 92.5 132.5 92.3 130.1 C 92.5 106.7 92.4 83.3 92.3 59.9 C 92.4 57.5 92.4 54.9 93.8 52.9 M 95.0 55.1 C 95.0 82.0 95.0 109.0 95.0 136.0 C 102.0 136.0 109.0 136.0 116.0 136.0 C 115.9 109.0 116.0 82.0 115.9 55.1 C 109.0 55.9 102.0 55.9 95.0 55.1 Z" />
<path fill="#ffffff" stroke="#ffffff" stroke-width="0.09375" opacity="1.00" d=" M 195.2 53.2 C 198.2 51.8 201.7 52.1 205.0 52.0 C 209.4 52.0 213.9 51.6 218.2 52.8 C 219.8 54.8 219.6 57.5 219.8 59.9 C 219.8 67.0 219.6 74.1 219.8 81.1 C 222.3 81.1 224.8 81.1 227.2 81.1 C 227.4 74.0 227.2 67.0 227.2 59.9 C 227.4 57.5 227.2 54.8 228.8 52.9 C 232.4 51.8 236.3 52.0 240.0 51.9 C 243.5 52.0 247.0 51.8 250.5 52.6 C 251.6 52.8 252.3 53.5 252.6 54.5 C 253.4 57.3 253.2 60.2 253.3 63.0 C 253.1 78.3 253.2 93.7 253.2 109.0 C 253.1 118.6 253.6 128.2 252.6 137.7 C 246.8 138.3 240.8 138.6 234.9 138.4 C 232.8 138.3 230.7 138.2 228.8 137.3 C 227.1 135.3 227.4 132.5 227.2 130.1 C 227.3 122.0 227.4 114.0 227.2 105.9 C 224.8 105.9 222.3 105.9 219.8 105.9 C 219.6 114.3 219.8 122.7 219.8 131.0 C 219.6 133.2 219.8 135.7 218.3 137.4 C 216.3 138.2 214.2 138.3 212.1 138.4 C 206.2 138.6 200.3 138.3 194.4 137.7 C 194.1 133.8 194.0 129.9 193.9 126.0 C 193.9 104.3 194.0 82.6 193.9 60.9 C 194.0 58.3 193.9 55.5 195.2 53.2 M 196.0 55.8 C 196.0 78.9 196.1 101.9 196.0 125.0 C 196.0 128.6 196.1 132.2 196.3 135.7 C 203.1 136.1 210.0 136.0 216.9 135.9 C 215.8 124.7 216.6 113.5 216.2 102.3 C 220.8 102.3 225.4 102.3 229.9 102.3 C 230.1 113.5 230.0 124.7 230.0 136.0 C 236.9 136.0 243.8 136.1 250.7 135.7 C 251.1 129.2 251.0 122.6 251.0 116.0 C 251.0 95.7 251.0 75.4 250.9 55.1 C 244.0 55.9 237.0 55.9 230.0 55.1 C 230.0 65.0 230.1 74.9 229.9 84.7 C 225.4 84.7 220.8 84.7 216.2 84.7 C 216.5 74.9 215.9 65.0 216.9 55.1 C 209.9 55.8 203.0 55.7 196.0 55.8 Z" />
<path fill="#ffffff" stroke="#ffffff" stroke-width="0.09375" opacity="1.00" d=" M 256.8 53.8 C 258.6 51.9 261.5 52.3 263.9 52.0 C 275.3 52.1 286.7 52.1 298.1 52.0 C 300.5 52.3 303.5 51.9 305.3 53.7 C 306.9 58.3 306.3 63.3 306.4 68.1 C 306.1 71.2 306.6 74.9 304.3 77.4 C 301.0 78.3 297.5 78.1 294.0 78.2 C 294.1 89.5 294.0 100.7 294.0 112.0 C 293.9 120.6 294.7 129.3 293.0 137.9 C 284.8 138.6 276.6 138.6 268.4 137.7 C 268.1 132.8 267.9 127.9 267.9 123.0 C 268.0 108.1 267.9 93.2 267.9 78.2 C 264.3 78.0 260.4 78.5 257.0 77.0 C 255.4 73.6 255.8 69.7 255.7 66.0 C 255.8 61.9 255.3 57.7 256.8 53.8 M 258.1 55.1 C 258.0 62.0 257.9 68.9 258.3 75.7 C 262.3 75.9 266.3 76.0 270.3 76.0 C 271.3 79.6 271.8 83.3 271.7 86.9 C 271.6 99.0 271.6 111.0 271.7 123.1 C 271.8 127.2 271.1 131.3 270.0 135.3 C 277.2 136.4 284.5 136.1 291.7 135.7 C 292.2 127.1 291.9 118.6 292.0 110.0 C 292.0 98.7 292.0 87.4 292.0 76.1 C 295.9 76.0 299.8 75.9 303.7 75.7 C 304.1 68.9 304.0 62.0 303.9 55.1 C 298.0 55.7 292.0 55.8 286.0 55.7 C 276.7 55.6 267.3 56.1 258.1 55.1 Z" />
<path fill="#ffffff" stroke="#ffffff" stroke-width="0.09375" opacity="1.00" d=" M 375.8 52.8 C 383.7 51.2 392.0 52.0 399.9 53.0 C 400.3 58.3 400.4 63.6 400.4 69.0 C 400.3 81.0 400.5 93.0 400.2 105.0 C 400.3 108.1 400.1 111.2 401.0 114.1 C 402.1 115.6 404.1 115.5 405.8 115.3 C 407.6 113.0 407.3 109.8 407.5 107.0 C 407.3 91.7 407.5 76.3 407.3 60.9 C 407.4 58.2 407.1 55.2 408.8 52.9 C 413.1 51.6 417.6 52.0 422.0 52.0 C 425.5 52.1 429.3 51.7 432.5 53.4 C 433.8 55.7 433.6 58.4 433.7 60.9 C 433.6 75.3 433.6 89.7 433.7 104.1 C 433.6 110.6 433.5 117.3 431.4 123.6 C 429.6 128.8 426.4 133.7 421.6 136.5 C 416.3 139.7 410.0 140.4 404.0 140.5 C 397.5 140.4 390.6 139.6 385.1 135.8 C 380.7 132.8 377.7 128.0 376.3 122.9 C 374.1 115.2 374.1 107.0 374.1 99.0 C 374.1 86.3 374.1 73.6 374.0 60.9 C 374.2 58.2 373.8 55.0 375.8 52.8 M 377.7 55.7 C 377.5 71.2 377.7 86.6 377.7 102.0 C 377.7 108.0 376.4 114.1 377.9 120.1 C 379.0 124.4 380.8 128.7 383.9 132.1 C 388.0 135.9 393.7 137.3 399.1 137.9 C 405.4 138.4 411.9 138.2 417.9 135.9 C 423.1 133.8 427.0 129.1 428.9 123.9 C 430.7 118.8 431.1 113.4 431.0 108.0 C 430.9 90.4 431.0 72.7 430.9 55.1 C 424.0 55.9 417.0 55.9 410.1 55.1 C 410.0 72.1 409.9 89.1 410.1 106.1 C 410.1 109.8 410.1 114.4 406.8 116.9 C 404.6 119.0 401.0 117.9 399.3 115.7 C 397.7 113.1 398.0 110.0 397.9 107.1 C 398.1 89.7 397.9 72.4 398.0 55.1 C 391.2 55.8 384.5 55.7 377.7 55.7 Z" />
<path fill="#ffffff" stroke="#ffffff" stroke-width="0.09375" opacity="1.00" d=" M 442.8 52.9 C 446.1 51.8 449.6 52.0 453.0 51.9 C 456.8 52.0 460.7 51.8 464.4 52.6 C 466.6 53.2 467.5 55.6 468.6 57.3 C 472.6 65.4 476.3 73.6 480.8 81.4 C 481.4 74.2 481.1 67.1 481.1 59.9 C 481.3 57.5 481.0 54.7 482.8 52.8 C 486.4 51.8 490.3 52.0 494.0 51.9 C 497.7 52.0 501.6 51.8 505.2 52.8 C 507.0 54.7 506.7 57.5 506.9 59.9 C 506.8 83.3 506.8 106.7 506.9 130.1 C 506.8 132.6 506.9 135.3 505.4 137.4 C 501.4 138.7 497.1 138.4 493.0 138.5 C 489.5 138.4 485.9 138.6 482.6 137.5 C 480.7 135.9 479.7 133.6 478.6 131.4 C 475.0 123.8 471.3 116.3 467.3 108.8 C 467.1 118.5 467.8 128.1 466.7 137.7 C 460.1 138.3 453.5 138.7 447.0 138.2 C 445.4 138.0 443.5 137.9 442.3 136.8 C 441.3 135.1 441.4 133.0 441.3 131.1 C 441.4 107.4 441.4 83.6 441.3 59.9 C 441.4 57.5 441.3 54.9 442.8 52.9 M 444.1 55.1 C 444.0 82.0 444.0 109.0 444.0 136.0 C 450.9 136.0 457.9 136.0 464.8 135.8 C 465.3 123.7 464.7 111.7 465.1 99.6 C 471.5 111.6 477.5 123.7 483.3 135.9 C 490.2 136.0 497.0 136.0 503.9 136.0 C 503.6 132.3 503.3 128.7 503.3 125.0 C 503.3 101.9 503.4 78.8 503.3 55.7 C 497.1 55.6 490.9 55.6 484.7 55.7 C 484.6 68.5 484.7 81.3 484.7 94.1 C 477.9 81.2 471.7 68.0 464.9 55.1 C 458.0 55.9 451.0 55.9 444.1 55.1 Z" />
<path fill="#ffffff" stroke="#ffffff" stroke-width="0.09375" opacity="1.00" d=" M 28.0 55.9 C 31.5 55.7 36.2 54.2 38.7 57.5 C 39.9 61.5 39.4 65.8 39.4 70.0 C 39.1 78.4 39.2 86.7 39.2 95.1 C 38.9 98.0 39.1 101.8 36.4 103.7 C 33.7 104.8 30.1 104.1 28.1 101.9 C 27.2 99.8 27.3 97.4 27.2 95.1 C 27.3 82.0 27.4 68.9 28.0 55.9 M 29.9 57.7 C 29.6 69.5 29.3 81.3 29.2 93.0 C 29.3 95.6 29.2 98.3 30.6 100.5 C 32.3 101.3 34.2 101.5 36.1 101.9 C 37.3 96.4 37.5 90.7 37.3 85.0 C 37.0 76.0 37.9 67.0 37.1 58.0 C 34.7 57.9 32.3 57.8 29.9 57.7 Z" />
<path fill="#ffffff" stroke="#ffffff" stroke-width="0.09375" opacity="1.00" d=" M 71.3 93.3 L 71.7 93.3 L 71.7 93.7 L 71.3 93.7 L 71.3 93.3 Z" />
<path fill="#ffffff" stroke="#ffffff" stroke-width="0.09375" opacity="1.00" d=" M 46.2 125.3 C 47.1 129.3 47.4 133.2 47.6 137.2 C 47.6 133.2 47.8 129.2 48.5 125.2 C 50.0 130.0 49.8 135.0 49.7 139.9 C 48.3 139.7 46.9 139.4 45.6 139.1 C 45.4 134.5 45.4 129.9 46.2 125.3 Z" />
<path fill="#ffffff" stroke="#ffffff" stroke-width="0.09375" opacity="1.00" d=" M 521.7 129.6 C 523.6 129.8 525.5 130.0 527.4 130.5 C 529.7 133.8 530.8 137.7 532.8 141.2 C 540.4 155.3 553.8 165.7 568.8 171.2 C 568.7 173.2 568.7 175.2 568.7 177.2 C 546.6 170.2 527.9 152.0 521.7 129.6 Z" />
<path fill="#ffffff" stroke="#ffffff" stroke-width="0.09375" opacity="1.00" d=" M 652.3 130.2 C 654.3 130.2 656.2 130.1 658.2 130.0 C 651.4 152.1 633.3 170.2 611.2 177.2 C 611.2 175.2 611.2 173.2 611.2 171.2 C 622.2 167.0 632.8 160.6 640.3 151.4 C 645.6 145.1 649.5 137.9 652.3 130.2 Z" />
<path fill="#ffffff" stroke="#ffffff" stroke-width="0.09375" opacity="1.00" d=" M 66.4 134.1 C 67.8 133.2 69.1 132.4 70.5 131.6 C 71.4 132.8 72.1 134.0 72.4 135.4 C 71.4 136.2 70.3 137.0 69.1 137.3 C 68.0 136.3 67.2 135.2 66.4 134.1 M 69.1 134.3 L 68.7 135.0 L 69.1 135.7 L 69.9 135.7 L 70.3 135.0 L 69.9 134.3 L 69.1 134.3 Z" />
<path fill="#ffffff" stroke="#ffffff" stroke-width="0.09375" opacity="1.00" d=" M 258.5 147.4 C 263.4 145.7 269.7 146.7 273.2 150.9 C 277.0 155.3 277.7 161.4 277.8 167.0 C 277.8 172.6 277.0 178.7 273.1 183.1 C 268.4 188.8 258.6 188.8 253.9 183.1 C 251.0 179.8 250.0 175.3 249.6 171.0 C 249.2 166.5 249.3 161.8 250.4 157.3 C 251.5 153.1 254.3 149.1 258.5 147.4 M 261.5 156.0 C 259.2 157.5 259.0 160.5 258.7 162.9 C 258.4 167.4 258.2 172.0 259.9 176.2 C 260.9 179.0 265.2 179.1 266.6 176.6 C 268.1 174.0 268.3 170.9 268.4 168.0 C 268.4 164.7 268.4 161.1 266.9 158.0 C 266.1 155.9 263.4 154.9 261.5 156.0 Z" />
<path fill="#ffffff" stroke="#ffffff" stroke-width="0.09375" opacity="1.00" d=" M 301.1 151.0 C 304.5 146.9 310.7 145.8 315.7 147.2 C 319.6 148.3 321.6 152.1 323.9 155.1 C 321.4 156.3 318.9 157.5 316.3 158.6 C 314.6 157.5 312.9 156.3 310.9 155.6 C 308.3 155.5 306.9 158.1 306.6 160.3 C 305.8 165.2 305.7 170.3 307.0 175.1 C 307.7 177.8 311.0 179.1 313.5 178.0 C 314.9 176.4 315.6 174.4 316.6 172.6 C 315.0 172.4 313.3 172.3 311.7 172.1 C 311.8 169.6 311.8 167.2 311.8 164.8 C 316.3 164.7 320.7 164.7 325.1 164.8 C 325.0 168.8 325.2 172.8 324.4 176.7 C 323.6 181.0 320.7 185.0 316.5 186.5 C 313.3 187.7 309.7 187.6 306.5 186.5 C 302.5 185.2 299.7 181.6 298.3 177.8 C 296.7 173.4 296.5 168.6 296.8 163.9 C 297.1 159.4 298.1 154.6 301.1 151.0 Z" />
<path fill="#ffffff" stroke="#ffffff" stroke-width="0.09375" opacity="1.00" d=" M 463.9 150.9 C 467.4 146.7 473.6 145.7 478.7 147.3 C 482.4 148.4 484.3 152.1 486.4 155.1 C 483.8 156.4 481.2 157.6 478.6 158.8 C 476.5 157.5 474.2 154.5 471.5 156.1 C 469.3 157.5 469.1 160.5 468.8 162.9 C 468.5 167.2 468.3 171.9 470.1 175.9 C 471.0 178.0 473.6 179.0 475.6 178.1 C 477.3 176.6 478.4 174.5 479.5 172.7 C 477.9 172.5 476.2 172.3 474.5 172.1 C 474.6 169.6 474.6 167.2 474.7 164.8 C 478.9 164.8 483.2 164.8 487.4 164.8 C 487.5 169.1 487.8 173.5 486.7 177.7 C 485.8 181.5 483.2 185.0 479.5 186.4 C 474.0 188.5 467.2 187.2 463.5 182.5 C 460.1 178.2 459.3 172.4 459.3 167.0 C 459.3 161.4 460.0 155.3 463.9 150.9 Z" />
<path fill="#ffffff" stroke="#ffffff" stroke-width="0.09375" opacity="1.00" d=" M 142.8 147.7 C 148.3 147.7 154.0 147.0 159.3 148.8 C 164.8 150.6 167.3 157.3 165.7 162.6 C 164.8 165.2 162.9 167.2 161.2 169.3 C 163.4 174.9 165.7 180.5 167.6 186.3 C 164.8 186.3 162.0 186.5 159.2 186.0 C 155.4 181.0 154.2 174.4 151.5 168.8 C 151.4 174.6 151.4 180.4 151.3 186.3 C 148.4 186.3 145.6 186.3 142.7 186.3 C 142.6 173.4 142.6 160.6 142.8 147.7 M 151.9 154.4 C 151.7 157.7 151.7 161.0 151.6 164.4 C 153.6 163.8 155.5 163.2 157.5 162.5 C 157.1 160.7 156.9 158.8 156.2 157.0 C 154.9 156.0 153.4 155.2 151.9 154.4 Z" />
<path fill="#ffffff" stroke="#ffffff" stroke-width="0.09375" opacity="1.00" d=" M 172.8 147.7 C 178.7 147.6 184.5 147.6 190.3 147.7 C 190.4 150.5 190.4 153.2 190.4 156.0 C 187.5 156.0 184.6 156.0 181.7 156.0 C 181.7 158.3 181.7 160.7 181.7 163.0 C 184.2 163.0 186.7 163.1 189.3 163.1 C 189.3 165.7 189.3 168.4 189.3 171.0 C 186.7 171.0 184.2 171.1 181.7 171.1 C 181.7 173.4 181.7 175.7 181.7 178.0 C 184.6 178.0 187.5 178.0 190.4 178.0 C 190.4 180.8 190.4 183.5 190.4 186.2 C 184.5 186.4 178.7 186.4 172.8 186.2 C 172.7 173.4 172.7 160.6 172.8 147.7 Z" />
<path fill="#ffffff" stroke="#ffffff" stroke-width="0.09375" opacity="1.00" d=" M 194.7 147.8 C 201.6 147.6 208.5 147.6 215.4 147.7 C 215.4 150.6 215.3 153.5 215.3 156.4 C 213.3 156.3 211.3 156.2 209.4 156.2 C 209.8 166.2 209.4 176.2 209.7 186.2 C 206.7 186.2 203.7 186.3 200.8 186.3 C 200.6 176.5 200.6 166.6 200.8 156.8 C 198.8 156.7 196.8 156.7 194.9 156.7 C 194.8 153.7 194.7 150.7 194.7 147.8 Z" />
<path fill="#ffffff" stroke="#ffffff" stroke-width="0.09375" opacity="1.00" d=" M 221.0 147.7 C 226.8 147.7 233.1 146.8 238.7 149.3 C 243.8 151.7 245.7 158.5 243.7 163.6 C 242.7 165.7 241.1 167.6 239.6 169.4 C 241.5 175.1 243.8 180.6 246.1 186.1 C 243.0 186.2 240.0 186.3 237.0 186.3 C 234.6 180.4 232.2 174.4 229.8 168.5 C 229.5 174.4 229.5 180.3 229.4 186.3 C 226.6 186.3 223.8 186.3 220.9 186.3 C 220.9 173.4 220.9 160.6 221.0 147.7 M 230.0 154.4 C 229.8 157.7 229.8 161.1 229.8 164.4 C 231.7 163.8 233.6 163.2 235.5 162.6 C 235.2 160.7 235.1 158.7 234.4 156.9 C 233.0 155.9 231.5 155.2 230.0 154.4 Z" />
<path fill="#ffffff" stroke="#ffffff" stroke-width="0.09375" opacity="1.00" d=" M 336.1 156.2 C 336.9 153.3 337.4 150.2 339.2 147.8 C 342.3 147.4 345.4 147.7 348.5 147.9 C 351.4 160.8 355.5 173.4 358.2 186.3 C 355.2 186.3 352.2 186.2 349.2 186.1 C 348.8 184.0 348.5 181.9 348.1 179.7 C 344.8 179.8 341.5 179.9 338.2 180.0 C 338.1 182.1 337.9 184.1 337.7 186.2 C 334.6 186.2 331.6 186.2 328.6 186.2 C 330.6 176.1 333.8 166.2 336.1 156.2 M 340.6 172.9 C 342.4 172.9 344.3 172.9 346.1 173.0 C 345.2 167.6 344.2 162.2 343.3 156.8 C 342.3 162.1 341.4 167.5 340.6 172.9 Z" />
<path fill="#ffffff" stroke="#ffffff" stroke-width="0.09375" opacity="1.00" d=" M 365.4 147.9 C 369.3 147.7 373.1 147.7 376.9 147.7 C 377.9 154.5 379.0 161.4 380.4 168.1 C 381.8 161.4 383.0 154.6 384.1 147.7 C 387.9 147.7 391.7 147.7 395.4 147.7 C 397.3 160.5 398.7 173.4 400.0 186.2 C 397.2 186.2 394.4 186.2 391.7 186.2 C 390.2 177.7 390.0 169.1 389.1 160.5 C 386.7 169.0 385.7 177.7 383.8 186.2 C 381.7 186.2 379.6 186.1 377.5 186.0 C 375.7 177.2 374.0 168.4 372.0 159.7 C 371.1 168.5 370.7 177.4 370.0 186.2 C 367.2 186.2 364.5 186.2 361.7 186.2 C 362.8 173.4 364.2 160.6 365.4 147.9 Z" />
<path fill="#ffffff" stroke="#ffffff" stroke-width="0.09375" opacity="1.00" d=" M 407.2 147.8 C 410.1 147.7 413.0 147.7 416.0 147.7 C 416.1 160.6 416.0 173.4 416.0 186.3 C 413.0 186.3 410.1 186.3 407.2 186.2 C 407.3 173.4 407.3 160.6 407.2 147.8 Z" />
<path fill="#ffffff" stroke="#ffffff" stroke-width="0.09375" opacity="1.00" d=" M 424.7 147.5 C 427.4 147.6 430.1 147.5 432.8 148.0 C 434.9 149.9 435.9 152.6 437.1 155.1 C 439.1 159.7 441.3 164.1 443.9 168.4 C 444.3 161.5 444.3 154.6 444.1 147.7 C 447.1 147.7 450.0 147.7 452.9 147.7 C 452.8 160.6 452.8 173.4 452.9 186.2 C 449.9 186.3 446.9 186.3 443.9 186.3 C 440.4 179.2 436.9 172.0 433.3 164.9 C 433.3 172.0 433.3 179.1 433.2 186.3 C 430.4 186.3 427.5 186.3 424.7 186.3 C 424.5 173.4 424.5 160.4 424.7 147.5 Z" />
</svg>
