<?xml version="1.0" encoding="UTF-8" ?>
<!DOCTYPE svg PUBLIC "-//W3C//DTD SVG 1.1//EN" "http://www.w3.org/Graphics/SVG/1.1/DTD/svg11.dtd">
<svg width="640pt" height="480pt" viewBox="0 0 640 480" version="1.1" xmlns="http://www.w3.org/2000/svg">
<path fill="#ffffff" stroke="#ffffff" stroke-width="0.09375" opacity="1.00" d=" M 100.6 0.0 L 112.4 0.0 C 121.9 1.2 131.5 1.9 140.8 4.3 C 148.5 6.3 155.9 9.8 162.0 15.0 C 166.0 18.4 168.3 23.3 170.6 27.9 C 170.7 19.6 170.3 11.3 170.8 2.9 C 176.5 2.7 182.3 2.7 188.0 2.7 C 220.3 2.7 252.7 2.7 285.0 2.7 C 290.7 2.7 296.4 2.7 302.1 2.9 C 302.5 10.3 302.3 17.6 302.2 25.0 C 306.7 21.2 311.0 17.1 316.1 14.1 C 324.7 8.8 334.4 5.7 344.2 3.5 C 351.5 1.8 358.9 1.8 366.2 1.0 C 372.5 0.5 378.7 0.4 384.9 0.9 C 393.3 1.7 401.8 1.8 410.1 3.8 C 421.0 6.0 431.8 10.3 440.5 17.5 C 446.0 22.0 449.7 28.3 453.0 34.5 C 437.6 35.0 422.5 38.5 407.2 39.5 C 405.6 39.6 403.9 39.4 402.6 38.4 C 398.9 36.0 395.6 33.2 391.6 31.6 C 383.1 28.1 373.6 26.9 364.6 28.8 C 357.5 30.3 350.9 35.4 348.8 42.6 C 347.3 47.9 347.4 53.6 348.0 59.0 C 348.4 63.1 349.7 67.3 352.6 70.4 C 356.6 74.8 362.4 77.5 368.3 78.4 C 380.4 79.8 392.6 77.9 404.0 73.8 C 404.1 72.2 404.1 70.5 404.2 68.8 C 394.1 67.8 384.1 69.9 374.0 69.9 C 373.7 61.3 373.7 52.7 374.0 44.1 C 400.3 44.1 426.5 44.1 452.8 44.2 C 453.0 54.5 452.5 64.8 453.0 75.1 C 467.2 52.2 481.1 29.1 494.9 6.0 C 495.6 5.0 496.3 3.9 497.4 3.2 C 499.5 2.6 501.7 2.7 504.0 2.6 C 518.0 2.8 532.0 2.8 546.0 2.6 C 548.2 2.7 550.5 2.6 552.6 3.2 C 555.3 5.5 556.5 8.8 558.3 11.8 C 576.2 42.2 594.0 72.5 611.9 103.0 C 601.2 103.1 590.6 103.0 580.0 103.0 C 571.5 102.9 562.9 103.4 554.4 102.7 C 552.3 97.8 550.0 93.1 547.6 88.4 C 532.2 88.2 516.7 88.3 501.3 88.4 C 498.8 93.2 496.4 98.0 493.8 102.8 C 484.9 103.3 475.9 102.9 467.0 103.0 C 456.9 102.9 446.9 103.2 436.9 102.9 C 438.3 99.9 439.8 97.0 441.3 94.1 C 433.7 96.1 426.4 98.9 418.7 100.5 C 413.3 101.7 407.8 102.6 402.3 103.6 C 393.4 105.3 384.2 105.6 375.0 105.7 C 367.1 105.8 359.2 105.9 351.4 104.4 C 342.1 102.7 332.7 101.0 324.2 96.8 C 317.2 93.7 310.9 89.2 305.1 84.1 C 305.2 90.4 305.3 96.7 305.0 102.9 C 297.7 103.2 290.3 103.0 283.0 103.0 C 251.0 103.0 219.0 103.0 187.0 103.0 C 181.4 103.1 175.9 103.1 170.3 102.9 C 170.4 97.8 170.3 92.8 170.1 87.8 C 165.4 91.3 160.7 94.9 155.3 97.3 C 145.5 101.8 134.7 103.5 124.0 104.8 C 115.7 105.7 107.3 105.7 98.9 105.7 C 89.2 105.6 79.5 104.0 69.9 102.1 C 62.3 100.6 54.9 97.7 48.2 93.8 C 42.6 90.6 37.8 85.8 35.1 79.8 C 33.2 75.8 32.4 71.3 31.8 67.0 C 42.2 66.2 52.6 65.8 63.1 65.6 C 69.3 65.3 75.6 64.4 81.9 64.6 C 83.5 68.3 84.9 72.3 87.9 75.1 C 92.7 79.6 99.5 81.5 106.0 81.3 C 111.4 81.2 117.1 80.0 121.2 76.2 C 122.9 74.8 123.0 72.4 123.3 70.4 C 103.0 62.8 80.7 62.9 60.3 55.9 C 52.2 53.2 44.9 47.8 40.4 40.6 C 36.8 34.9 37.4 26.9 41.7 21.8 C 49.1 12.4 60.7 7.9 71.7 4.5 C 81.0 1.3 91.0 1.5 100.6 0.0 M 61.1 16.2 C 56.5 18.6 51.9 21.5 48.9 25.8 C 46.3 29.4 46.3 34.6 48.8 38.2 C 52.2 43.5 57.6 47.3 63.5 49.5 C 70.0 51.8 76.9 53.0 83.7 54.4 C 96.4 57.3 109.5 58.1 121.9 62.2 C 125.0 63.3 128.3 64.8 130.5 67.4 C 132.5 69.6 132.8 72.9 131.7 75.6 C 130.1 79.4 126.7 82.2 123.2 84.1 C 116.1 87.9 107.8 88.6 100.0 87.8 C 93.4 87.2 86.8 84.6 81.8 80.2 C 79.1 77.8 77.1 74.6 75.0 71.6 C 68.6 71.8 62.3 72.4 56.0 72.4 C 51.3 72.3 46.6 72.6 42.0 73.4 C 42.9 76.9 44.3 80.4 47.0 83.1 C 52.4 88.8 59.9 92.1 67.4 94.4 C 79.3 97.7 91.7 99.0 104.0 98.7 C 116.3 98.5 128.9 98.4 140.8 94.9 C 150.4 92.2 160.6 87.8 166.1 79.0 C 169.4 74.2 170.2 67.2 166.7 62.2 C 162.2 56.0 154.8 52.7 147.8 50.2 C 138.8 46.9 129.3 45.8 120.0 44.0 C 108.2 41.9 95.4 42.4 84.7 36.3 C 80.7 34.1 78.0 28.8 80.6 24.6 C 83.6 20.3 89.1 18.7 94.1 18.0 C 102.3 17.0 111.0 17.5 118.4 21.6 C 122.2 23.7 124.9 27.1 127.5 30.5 C 139.0 30.8 150.5 30.6 162.1 30.6 C 160.0 22.7 153.6 16.8 146.3 13.7 C 136.4 9.6 125.7 7.4 115.1 7.2 C 107.4 7.1 99.7 7.1 92.0 7.5 C 81.3 8.4 70.7 11.3 61.1 16.2 M 339.0 12.1 C 328.1 15.1 317.6 20.5 310.0 29.0 C 303.4 36.2 299.9 46.2 300.6 56.0 C 301.0 65.9 306.6 74.7 313.8 81.2 C 324.1 90.5 337.7 95.3 351.3 97.5 C 360.1 99.1 369.1 98.9 378.0 98.8 C 393.8 99.0 409.6 96.1 424.7 91.6 C 431.1 89.8 437.3 87.3 443.8 85.6 C 444.2 81.7 444.4 77.9 444.3 74.0 C 444.1 66.3 444.5 58.6 444.1 50.9 C 436.1 50.6 428.0 50.8 420.0 50.8 C 407.6 50.9 395.2 50.5 382.8 50.9 C 382.6 54.7 382.6 58.4 382.8 62.2 C 392.9 61.7 402.9 61.3 413.0 61.8 C 413.2 67.2 413.2 72.6 413.1 77.9 C 405.6 80.8 397.8 83.2 389.9 84.6 C 383.3 85.6 376.6 85.5 370.0 85.3 C 360.0 84.7 349.7 80.6 343.7 72.3 C 339.1 65.9 338.6 57.6 338.8 50.0 C 339.0 42.4 341.7 34.6 347.6 29.6 C 354.3 23.9 363.2 20.9 372.0 21.1 C 381.5 20.7 391.1 23.1 399.6 27.4 C 403.0 29.1 405.9 32.4 409.9 32.1 C 420.0 31.7 430.0 29.6 440.0 28.8 C 433.0 18.9 421.4 13.5 409.9 10.9 C 395.6 7.2 380.7 7.4 366.0 7.8 C 356.9 7.9 347.9 9.8 339.0 12.1 M 179.1 9.9 C 179.0 38.6 179.0 67.3 179.1 96.0 C 188.4 96.4 197.7 96.1 207.0 96.1 C 236.7 96.1 266.4 96.3 296.1 96.0 C 296.4 91.7 296.4 87.5 296.1 83.2 C 269.3 83.1 242.6 83.4 215.9 83.1 C 215.5 74.7 215.5 66.2 215.9 57.8 C 218.6 57.7 221.3 57.6 224.0 57.6 C 245.2 57.7 266.5 57.6 287.7 57.7 C 287.7 53.6 287.7 49.4 287.7 45.2 C 263.8 45.1 239.8 45.4 215.9 45.1 C 215.6 37.5 215.5 29.8 215.9 22.2 C 237.3 22.2 258.6 22.2 280.0 22.2 C 284.6 22.3 289.1 22.3 293.7 21.9 C 293.7 17.9 293.7 14.0 293.7 10.0 C 287.1 9.4 280.6 9.8 274.0 9.7 C 247.0 9.7 220.0 9.7 193.0 9.7 C 188.4 9.6 183.7 9.6 179.1 9.9 M 502.5 10.3 C 499.9 13.3 498.3 16.9 496.2 20.2 C 484.7 39.3 473.1 58.4 461.5 77.6 C 457.9 83.7 453.8 89.5 450.8 96.0 C 463.1 96.3 475.5 96.3 487.9 96.0 C 490.4 91.2 492.6 86.1 495.2 81.4 C 514.7 81.4 534.2 81.2 553.6 81.4 C 556.1 86.1 558.4 90.8 560.5 95.7 C 564.0 96.1 567.5 96.3 571.0 96.2 C 580.0 96.0 589.0 96.4 597.9 96.0 C 582.1 68.6 565.8 41.5 550.0 14.0 C 549.1 12.6 548.3 10.9 546.8 10.0 C 544.9 9.6 542.9 9.6 541.0 9.6 C 530.0 9.7 519.0 9.7 508.0 9.6 C 506.1 9.7 504.2 9.5 502.5 10.3 M 89.4 26.6 C 87.1 29.5 91.0 31.8 93.5 32.5 C 102.2 35.0 111.3 36.1 120.4 36.8 C 119.2 33.4 117.4 29.9 114.2 27.9 C 106.9 23.2 97.2 23.1 89.4 26.6 M 224.8 29.0 C 224.7 32.0 224.7 35.1 224.8 38.1 C 245.9 38.6 266.9 38.1 288.0 38.4 C 290.2 38.3 292.5 38.6 294.5 37.7 C 296.6 35.1 297.7 32.0 299.1 29.0 C 291.4 28.7 283.7 28.9 276.0 28.8 C 258.9 28.9 241.9 28.7 224.8 29.0 M 122.9 37.3 C 133.8 39.6 145.1 41.1 155.5 45.4 C 160.8 47.1 165.3 50.5 170.1 53.3 C 170.5 48.0 170.6 42.6 170.0 37.3 C 154.3 37.4 138.6 37.4 122.9 37.3 M 224.8 64.8 C 224.6 68.6 224.6 72.3 224.8 76.1 C 232.5 76.5 240.3 76.2 248.0 76.3 C 264.7 76.2 281.4 76.5 298.1 76.1 C 296.4 72.3 294.6 68.5 292.9 64.7 C 274.0 64.5 255.0 64.7 236.0 64.6 C 232.3 64.6 228.5 64.6 224.8 64.8 Z" />
<path fill="#ffffff" stroke="#ffffff" stroke-width="0.09375" opacity="1.00" d=" M 61.1 16.2 C 70.7 11.3 81.3 8.4 92.0 7.5 C 99.7 7.1 107.4 7.1 115.1 7.2 C 125.7 7.4 136.4 9.6 146.3 13.7 C 153.6 16.8 160.0 22.7 162.1 30.6 C 150.5 30.6 139.0 30.8 127.5 30.5 C 124.9 27.1 122.2 23.7 118.4 21.6 C 111.0 17.5 102.3 17.0 94.1 18.0 C 89.1 18.7 83.6 20.3 80.6 24.6 C 78.0 28.8 80.7 34.1 84.7 36.3 C 95.4 42.4 108.2 41.9 120.0 44.0 C 129.3 45.8 138.8 46.9 147.8 50.2 C 154.8 52.7 162.2 56.0 166.7 62.2 C 170.2 67.2 169.4 74.2 166.1 79.0 C 160.6 87.8 150.4 92.2 140.8 94.9 C 128.9 98.4 116.3 98.5 104.0 98.7 C 91.7 99.0 79.3 97.7 67.4 94.4 C 59.9 92.1 52.4 88.8 47.0 83.1 C 44.3 80.4 42.9 76.9 42.0 73.4 C 46.6 72.6 51.3 72.3 56.0 72.4 C 62.3 72.4 68.6 71.8 75.0 71.6 C 77.1 74.6 79.1 77.8 81.8 80.2 C 86.8 84.6 93.4 87.2 100.0 87.8 C 107.8 88.6 116.1 87.9 123.2 84.1 C 126.7 82.2 130.1 79.4 131.7 75.6 C 132.8 72.9 132.5 69.6 130.5 67.4 C 128.3 64.8 125.0 63.3 121.9 62.2 C 109.5 58.1 96.4 57.3 83.7 54.4 C 76.9 53.0 70.0 51.8 63.5 49.5 C 57.6 47.3 52.2 43.5 48.8 38.2 C 46.3 34.6 46.3 29.4 48.9 25.8 C 51.9 21.5 56.5 18.6 61.1 16.2 Z" />
<path fill="#ffffff" stroke="#ffffff" stroke-width="0.09375" opacity="1.00" d=" M 339.0 12.1 C 347.9 9.8 356.9 7.9 366.0 7.8 C 380.7 7.4 395.6 7.2 409.9 10.9 C 421.4 13.5 433.0 18.9 440.0 28.8 C 430.0 29.6 420.0 31.7 409.9 32.1 C 405.9 32.4 403.0 29.1 399.6 27.4 C 391.1 23.1 381.5 20.7 372.0 21.1 C 363.2 20.9 354.3 23.9 347.6 29.6 C 341.7 34.6 339.0 42.4 338.8 50.0 C 338.6 57.6 339.1 65.9 343.7 72.3 C 349.7 80.6 360.0 84.7 370.0 85.3 C 376.6 85.5 383.3 85.6 389.9 84.6 C 397.8 83.2 405.6 80.8 413.1 77.9 C 413.2 72.6 413.2 67.2 413.0 61.8 C 402.9 61.3 392.9 61.7 382.8 62.2 C 382.6 58.4 382.6 54.7 382.8 50.9 C 395.2 50.5 407.6 50.9 420.0 50.8 C 428.0 50.8 436.1 50.6 444.1 50.9 C 444.5 58.6 444.1 66.3 444.3 74.0 C 444.4 77.9 444.2 81.7 443.8 85.6 C 437.3 87.3 431.1 89.8 424.7 91.6 C 409.6 96.1 393.8 99.0 378.0 98.8 C 369.1 98.9 360.1 99.1 351.3 97.5 C 337.7 95.3 324.1 90.5 313.8 81.2 C 306.6 74.7 301.0 65.9 300.6 56.0 C 299.9 46.2 303.4 36.2 310.0 29.0 C 317.6 20.5 328.1 15.1 339.0 12.1 Z" />
<path fill="#ffffff" stroke="#ffffff" stroke-width="0.09375" opacity="1.00" d=" M 179.1 9.9 C 183.7 9.6 188.4 9.6 193.0 9.7 C 220.0 9.7 247.0 9.7 274.0 9.7 C 280.6 9.8 287.1 9.4 293.7 10.0 C 293.7 14.0 293.7 17.9 293.7 21.9 C 289.1 22.3 284.6 22.3 280.0 22.2 C 258.6 22.2 237.3 22.2 215.9 22.2 C 215.5 29.8 215.6 37.5 215.9 45.1 C 239.8 45.4 263.8 45.1 287.7 45.2 C 287.7 49.4 287.7 53.6 287.7 57.7 C 266.5 57.6 245.2 57.7 224.0 57.6 C 221.3 57.6 218.6 57.7 215.9 57.8 C 215.5 66.2 215.5 74.7 215.9 83.1 C 242.6 83.4 269.3 83.1 296.1 83.2 C 296.4 87.5 296.4 91.7 296.1 96.0 C 266.4 96.3 236.7 96.1 207.0 96.1 C 197.7 96.1 188.4 96.4 179.1 96.0 C 179.0 67.3 179.0 38.6 179.1 9.9 Z" />
<path fill="#ffffff" stroke="#ffffff" stroke-width="0.09375" opacity="1.00" d=" M 502.5 10.3 C 504.2 9.5 506.1 9.7 508.0 9.6 C 519.0 9.7 530.0 9.7 541.0 9.6 C 542.9 9.6 544.9 9.6 546.8 10.0 C 548.3 10.9 549.1 12.6 550.0 14.0 C 565.8 41.5 582.1 68.6 597.9 96.0 C 589.0 96.4 580.0 96.0 571.0 96.2 C 567.5 96.3 564.0 96.1 560.5 95.7 C 558.4 90.8 556.1 86.1 553.6 81.4 C 534.2 81.2 514.7 81.4 495.2 81.4 C 492.6 86.1 490.4 91.2 487.9 96.0 C 475.5 96.3 463.1 96.3 450.8 96.0 C 453.8 89.5 457.9 83.7 461.5 77.6 C 473.1 58.4 484.7 39.3 496.2 20.2 C 498.3 16.9 499.9 13.3 502.5 10.3 M 509.8 50.7 C 507.2 56.6 504.0 62.1 501.8 68.1 C 508.5 68.5 515.3 68.3 522.0 68.3 C 530.3 68.2 538.7 68.6 547.0 68.1 C 540.8 54.4 533.9 41.1 527.5 27.6 C 526.5 25.5 525.3 23.5 524.1 21.6 C 519.1 31.2 514.5 41.0 509.8 50.7 Z" />
<path fill="#ffffff" stroke="#ffffff" stroke-width="0.09375" opacity="1.00" d=" M 509.8 50.7 C 514.5 41.0 519.1 31.2 524.1 21.6 C 525.3 23.5 526.5 25.5 527.5 27.6 C 533.9 41.1 540.8 54.4 547.0 68.1 C 538.7 68.6 530.3 68.2 522.0 68.3 C 515.3 68.3 508.5 68.5 501.8 68.1 C 504.0 62.1 507.2 56.6 509.8 50.7 M 523.6 41.5 C 521.0 48.3 516.8 54.3 514.7 61.2 C 521.1 61.5 527.6 61.5 534.1 61.1 C 531.4 54.4 527.8 48.0 524.7 41.5 C 524.4 41.5 523.9 41.5 523.6 41.5 Z" />
<path fill="#ffffff" stroke="#ffffff" stroke-width="0.09375" opacity="1.00" d=" M 366.5 141.6 C 391.8 130.2 420.2 125.1 447.7 129.1 C 467.5 131.9 487.4 136.8 504.5 147.5 C 512.8 153.0 520.4 160.0 524.9 169.0 C 530.8 181.4 531.7 195.7 528.9 209.0 C 527.5 216.0 524.0 222.3 520.7 228.6 C 513.2 242.4 502.7 254.6 490.4 264.4 C 485.7 268.2 480.4 271.2 475.6 275.0 C 495.8 275.5 516.1 274.9 536.0 279.0 C 551.7 281.7 567.1 286.5 581.5 293.6 C 597.6 301.9 612.7 312.7 623.8 327.1 C 629.7 335.1 634.8 343.9 637.1 353.6 C 639.3 364.3 640.4 375.6 638.2 386.4 C 636.2 396.1 633.3 405.8 628.4 414.5 C 620.0 430.0 607.9 443.4 593.5 453.5 C 588.3 457.2 582.6 460.1 576.9 462.9 C 568.0 467.3 558.5 470.1 549.0 472.7 C 541.7 474.3 534.4 475.4 527.1 476.8 C 516.5 478.8 505.6 477.5 495.1 480.0 L 483.3 480.0 C 487.3 479.8 491.3 479.2 495.2 478.5 C 479.3 478.3 463.2 478.8 447.4 476.8 C 440.7 475.9 434.0 475.5 427.3 474.5 C 416.4 472.7 405.5 470.9 394.7 469.0 C 359.3 462.1 324.4 453.1 290.0 442.2 C 281.4 439.3 272.6 437.0 264.1 433.9 C 252.8 429.9 241.4 426.1 230.3 421.7 C 227.7 420.8 225.0 419.7 222.2 420.2 C 218.5 420.9 215.0 422.3 211.4 423.5 C 167.9 438.5 125.0 455.1 83.2 474.2 C 78.6 476.2 73.4 476.6 68.5 475.3 C 64.3 474.1 61.1 470.8 58.6 467.4 C 46.1 450.7 36.5 431.7 31.8 411.4 C 30.5 405.0 29.6 398.4 28.9 391.9 C 28.5 387.8 28.1 383.2 30.6 379.6 C 33.1 376.1 37.3 374.6 41.2 373.2 C 48.9 370.7 56.3 367.6 64.1 365.2 C 74.8 361.9 85.3 358.0 96.2 355.2 C 87.4 350.0 79.1 344.0 70.8 338.1 C 54.3 326.2 38.2 313.6 23.2 299.8 C 17.4 294.3 11.5 288.8 6.4 282.5 C 4.0 279.4 1.5 276.0 0.7 271.9 C 0.0 268.4 1.6 264.6 4.5 262.5 C 7.5 260.2 11.4 259.9 15.0 260.2 C 20.6 260.6 25.8 262.9 30.9 265.3 C 45.0 272.1 58.7 279.5 72.8 286.3 C 104.2 302.2 136.2 316.8 168.6 330.4 C 171.4 331.6 174.1 333.1 177.2 333.5 C 180.2 333.7 183.1 332.8 185.9 332.1 C 192.3 330.4 198.9 329.7 205.4 328.2 C 209.8 327.2 214.4 326.4 218.9 325.7 C 227.0 324.5 234.9 322.3 243.1 321.4 C 264.5 318.8 285.6 314.6 307.1 313.0 C 307.0 307.0 306.6 300.9 308.0 295.0 C 310.0 285.9 312.9 276.8 317.9 268.9 C 323.8 259.2 334.2 252.6 345.4 250.6 C 356.5 248.7 367.8 250.7 378.9 249.1 C 388.4 247.8 397.7 245.4 406.4 241.4 C 417.6 236.4 426.7 227.1 432.1 216.2 C 433.9 212.2 435.4 207.1 432.9 203.1 C 429.7 199.4 424.7 197.9 420.0 197.4 C 412.8 196.8 405.3 197.0 398.5 199.5 C 386.7 203.6 377.4 212.4 365.9 217.0 C 359.0 220.2 351.5 222.0 344.0 221.4 C 336.0 221.3 328.5 217.6 322.6 212.4 C 319.1 209.1 316.2 204.9 315.8 200.0 C 315.5 188.4 322.3 178.0 329.3 169.3 C 339.4 157.4 352.5 148.3 366.5 141.6 M 401.4 138.7 C 380.7 143.4 360.4 152.1 344.8 166.8 C 337.4 173.6 331.4 182.1 327.6 191.5 C 326.3 195.4 325.1 200.4 327.9 204.0 C 331.8 209.0 337.6 212.9 344.0 213.3 C 349.8 213.9 355.6 212.3 360.9 209.9 C 369.5 206.2 376.7 200.1 385.2 196.1 C 390.5 193.5 396.0 190.8 402.0 190.0 C 410.2 188.8 418.7 188.9 426.9 190.4 C 430.6 191.1 434.1 192.7 437.3 194.7 C 441.3 197.2 444.2 201.4 444.7 206.1 C 445.2 211.6 443.3 216.9 440.7 221.7 C 435.7 230.3 429.0 238.1 420.6 243.5 C 411.7 249.3 401.6 253.2 391.2 255.3 C 385.5 256.5 379.9 257.8 374.1 257.9 C 367.1 258.4 360.2 256.9 353.3 257.6 C 348.8 258.1 344.2 259.0 340.0 261.0 C 334.2 263.9 329.4 268.7 326.2 274.3 C 323.2 279.4 321.6 285.2 319.9 290.9 C 318.1 297.1 316.9 303.6 318.0 310.0 C 319.2 316.7 325.5 321.9 332.2 322.5 C 341.6 323.3 351.0 322.3 360.1 320.3 C 372.7 318.4 385.3 316.6 397.9 315.2 C 411.6 313.8 425.3 314.3 439.0 314.8 C 457.8 315.7 476.4 319.0 494.7 323.4 C 506.5 326.7 518.3 330.7 528.8 337.2 C 532.6 339.5 535.9 342.4 539.4 345.1 C 541.0 348.8 544.1 351.7 545.2 355.6 C 546.6 361.3 545.4 367.5 542.7 372.7 C 537.7 382.2 529.7 389.9 520.9 395.9 C 513.0 401.6 504.1 405.8 494.9 408.9 C 476.6 414.7 457.1 413.6 438.2 412.5 C 428.0 411.5 417.9 410.4 408.0 408.4 C 396.0 406.6 384.0 404.7 372.2 401.9 C 364.9 400.1 357.4 399.1 350.1 397.2 C 339.7 394.5 329.1 392.3 318.7 389.5 C 310.0 387.4 301.5 384.6 292.8 382.4 C 281.0 379.4 269.5 375.4 257.9 372.0 C 243.8 367.1 229.5 362.9 215.6 357.6 C 206.2 354.5 197.0 350.6 187.7 347.3 C 183.2 345.8 179.0 343.3 174.4 342.5 C 169.6 339.8 164.3 338.1 159.3 335.9 C 146.7 330.9 134.6 325.1 122.2 319.7 C 110.0 314.3 98.1 308.4 86.1 302.8 C 70.3 294.6 54.2 287.1 38.6 278.5 C 32.5 275.4 26.2 272.8 20.0 269.9 C 17.2 268.6 14.0 268.2 10.9 268.1 C 11.2 270.5 11.6 273.0 13.0 275.0 C 16.8 280.4 21.5 285.1 26.2 289.8 C 45.5 308.2 66.8 324.3 88.6 339.4 C 91.5 341.5 94.4 343.5 97.5 345.2 C 98.1 346.0 98.9 346.6 99.8 347.2 C 118.2 359.1 137.1 370.4 156.6 380.4 C 187.3 396.0 219.2 409.0 251.6 420.5 C 283.2 432.0 315.5 441.5 348.0 449.9 C 354.7 451.3 361.3 453.5 368.0 454.8 C 391.8 460.1 415.7 465.2 439.9 467.5 C 445.6 468.3 451.2 469.2 457.0 469.5 C 469.3 470.1 481.6 470.8 494.0 470.7 C 517.0 471.1 540.1 467.6 561.8 459.9 C 581.4 452.9 599.0 440.1 611.1 423.1 C 618.9 412.7 624.4 400.6 627.1 387.9 C 628.8 381.0 628.5 374.0 628.4 367.0 C 628.4 360.9 626.6 355.0 624.8 349.3 C 624.2 347.5 623.7 345.6 622.3 344.3 C 617.9 333.7 609.9 325.1 601.4 317.6 C 589.5 307.3 575.6 299.4 560.6 294.3 C 555.1 292.4 549.7 290.3 543.9 289.2 C 540.1 288.5 536.3 287.6 532.5 286.8 C 517.6 283.6 502.2 283.7 487.0 283.3 C 480.7 283.3 474.3 283.4 468.0 283.3 C 462.6 283.2 457.4 284.5 452.1 284.7 C 444.7 285.1 437.4 285.5 430.1 286.5 C 426.6 287.0 423.1 287.3 419.6 287.0 C 421.4 285.3 423.8 284.6 426.1 284.2 C 436.5 282.0 446.6 278.6 456.4 274.4 C 476.7 265.7 494.6 251.2 506.6 232.6 C 511.0 225.7 515.1 218.5 517.6 210.7 C 520.1 202.7 519.9 194.2 519.2 186.0 C 518.5 176.3 513.5 167.2 506.4 160.6 C 499.7 154.2 491.3 149.9 482.8 146.3 C 473.8 143.0 464.6 139.7 455.0 138.6 C 448.1 137.4 441.2 136.5 434.2 136.3 C 423.2 135.1 412.2 136.6 401.4 138.7 M 299.3 322.2 C 291.7 323.0 284.0 323.3 276.5 324.8 C 266.4 326.8 256.1 327.4 246.0 329.1 C 233.9 331.8 221.6 333.4 209.5 335.7 C 203.7 337.3 197.7 337.8 191.9 339.2 C 194.4 340.5 196.9 341.7 199.6 342.6 C 213.8 347.8 227.9 353.2 242.3 357.8 C 257.1 362.8 271.9 367.7 286.8 372.1 C 295.3 374.2 303.7 376.9 312.2 379.1 C 315.4 380.0 318.6 381.2 322.0 381.4 C 325.0 381.5 327.9 380.7 330.8 379.9 C 341.0 376.9 351.4 375.0 361.7 372.6 C 368.4 370.6 375.3 369.7 382.0 368.1 C 389.0 366.3 396.3 365.5 403.3 363.5 C 413.9 361.3 424.6 360.0 435.1 357.6 C 449.5 355.8 463.6 352.0 478.1 350.8 C 484.5 350.1 490.7 348.1 497.1 347.6 C 505.8 346.9 514.5 346.2 523.1 344.5 C 520.0 341.3 515.4 340.3 511.5 338.3 C 506.6 335.8 501.2 334.5 496.0 332.9 C 484.4 328.6 472.1 326.9 460.0 325.0 C 452.1 323.6 444.0 323.8 435.9 322.9 C 425.5 321.9 415.0 322.1 404.6 323.3 C 395.3 323.8 386.0 324.6 376.8 326.0 C 369.9 327.6 362.8 328.1 355.9 329.5 C 351.0 330.5 346.0 330.7 341.0 330.7 C 335.3 330.7 329.3 331.2 323.9 329.0 C 319.2 327.4 315.3 324.4 311.8 321.0 C 307.6 321.3 303.5 321.7 299.3 322.2 M 478.3 358.7 C 470.6 360.3 462.8 361.0 455.0 362.4 C 443.0 364.7 430.9 366.3 419.0 369.0 C 407.3 371.3 395.5 373.1 384.0 376.0 C 377.3 377.7 370.4 378.6 363.8 380.5 C 355.8 382.3 347.9 384.5 339.8 385.7 C 341.5 386.6 343.2 387.4 345.2 387.7 C 362.5 391.4 379.7 395.5 397.2 398.1 C 407.3 400.4 417.6 402.2 428.0 403.0 C 434.7 403.3 441.2 404.9 448.0 404.8 C 462.5 405.7 477.4 405.3 491.5 401.3 C 499.6 398.2 507.4 394.5 514.4 389.4 C 522.0 383.8 529.2 377.1 533.4 368.5 C 536.0 363.2 535.7 356.5 531.9 351.8 C 514.0 353.7 496.2 356.5 478.3 358.7 M 99.0 362.9 C 93.7 364.8 88.3 366.1 83.0 367.9 C 70.8 372.1 58.5 375.9 46.4 380.3 C 44.1 381.2 41.6 382.0 39.6 383.6 C 38.6 386.3 39.1 389.3 39.2 392.1 C 40.8 405.8 43.8 419.5 49.6 432.2 C 53.9 443.2 60.3 453.2 67.2 462.8 C 68.5 464.5 69.8 466.2 71.5 467.5 C 74.6 468.7 77.8 467.1 80.7 465.9 C 104.2 455.2 128.1 445.3 152.2 436.1 C 164.1 431.1 176.4 427.2 188.4 422.6 C 195.9 420.1 203.5 417.6 210.9 414.7 C 203.7 411.1 196.3 408.3 188.9 405.2 C 163.2 394.1 138.2 381.2 114.2 366.8 C 111.1 365.0 108.3 362.6 104.8 361.4 C 102.8 361.6 100.9 362.3 99.0 362.9 Z" />
<path fill="#ffffff" stroke="#ffffff" stroke-width="0.09375" opacity="1.00" d=" M 401.4 138.7 C 412.2 136.6 423.2 135.1 434.2 136.3 C 441.2 136.5 448.1 137.4 455.0 138.6 C 464.6 139.7 473.8 143.0 482.8 146.3 C 491.3 149.9 499.7 154.2 506.4 160.6 C 513.5 167.2 518.5 176.3 519.2 186.0 C 519.9 194.2 520.1 202.7 517.6 210.7 C 515.1 218.5 511.0 225.7 506.6 232.6 C 494.6 251.2 476.7 265.7 456.4 274.4 C 446.6 278.6 436.5 282.0 426.1 284.2 C 423.8 284.6 421.4 285.3 419.6 287.0 C 423.1 287.3 426.6 287.0 430.1 286.5 C 437.4 285.5 444.7 285.1 452.1 284.7 C 457.4 284.5 462.6 283.2 468.0 283.3 C 474.3 283.4 480.7 283.3 487.0 283.3 C 502.2 283.7 517.6 283.6 532.5 286.8 C 536.3 287.6 540.1 288.5 543.9 289.2 C 549.7 290.3 555.1 292.4 560.6 294.3 C 575.6 299.4 589.5 307.3 601.4 317.6 C 609.9 325.1 617.9 333.7 622.3 344.3 C 620.0 343.0 617.6 341.6 614.9 341.2 C 611.3 340.7 607.6 341.0 604.0 341.0 C 582.4 341.2 560.9 340.8 539.3 341.2 C 539.4 342.5 539.4 343.8 539.4 345.1 C 535.9 342.4 532.6 339.5 528.8 337.2 C 518.3 330.7 506.5 326.7 494.7 323.4 C 476.4 319.0 457.8 315.7 439.0 314.8 C 425.3 314.3 411.6 313.8 397.9 315.2 C 385.3 316.6 372.7 318.4 360.1 320.3 C 351.0 322.3 341.6 323.3 332.2 322.5 C 325.5 321.9 319.2 316.7 318.0 310.0 C 316.9 303.6 318.1 297.1 319.9 290.9 C 321.6 285.2 323.2 279.4 326.2 274.3 C 329.4 268.7 334.2 263.9 340.0 261.0 C 344.2 259.0 348.8 258.1 353.3 257.6 C 360.2 256.9 367.1 258.4 374.1 257.9 C 379.9 257.8 385.5 256.5 391.2 255.3 C 401.6 253.2 411.7 249.3 420.6 243.5 C 429.0 238.1 435.7 230.3 440.7 221.7 C 443.3 216.9 445.2 211.6 444.7 206.1 C 444.2 201.4 441.3 197.2 437.3 194.7 C 434.1 192.7 430.6 191.1 426.9 190.4 C 418.7 188.9 410.2 188.8 402.0 190.0 C 396.0 190.8 390.5 193.5 385.2 196.1 C 376.7 200.1 369.5 206.2 360.9 209.9 C 355.6 212.3 349.8 213.9 344.0 213.3 C 337.6 212.9 331.8 209.0 327.9 204.0 C 325.1 200.4 326.3 195.4 327.6 191.5 C 331.4 182.1 337.4 173.6 344.8 166.8 C 360.4 152.1 380.7 143.4 401.4 138.7 Z" />
<path fill="#ffffff" stroke="#ffffff" stroke-width="0.09375" opacity="1.00" d=" M 271.1 150.2 C 279.5 146.6 289.6 146.8 297.7 151.2 C 303.9 154.0 309.1 160.0 309.4 167.0 C 309.5 171.3 306.9 175.1 304.0 178.0 C 292.2 190.3 281.4 203.5 272.5 218.1 C 275.0 220.4 277.6 222.5 279.8 225.2 C 282.9 229.2 284.3 234.7 282.5 239.6 C 281.1 243.5 278.1 246.4 275.0 248.9 C 264.9 256.8 255.2 265.2 245.7 273.7 C 241.0 277.7 235.4 281.4 229.1 281.7 C 224.4 282.0 219.5 281.9 215.2 279.9 C 209.3 277.2 203.4 272.9 201.4 266.5 C 199.1 259.8 202.7 253.1 204.9 246.8 C 209.8 233.6 216.0 221.0 222.9 208.8 C 221.2 207.3 219.3 206.1 217.3 205.0 C 213.6 220.0 208.1 234.7 199.6 247.6 C 192.6 257.7 184.0 266.9 173.4 273.3 C 166.0 277.4 158.0 280.7 149.6 282.3 C 138.3 284.1 126.6 283.8 115.4 281.3 C 110.7 280.3 106.5 278.1 102.2 275.9 C 91.7 270.8 82.9 261.7 79.4 250.4 C 77.1 245.3 77.2 239.6 76.9 234.1 C 72.2 232.9 67.3 231.6 63.2 228.8 C 59.3 226.2 56.0 222.4 55.0 217.8 C 54.0 214.1 54.7 210.0 56.7 206.7 C 58.8 203.5 62.0 201.3 65.1 199.1 C 70.9 195.0 76.4 190.4 81.0 185.0 C 86.2 179.0 89.3 171.5 94.5 165.5 C 98.8 160.5 104.5 157.0 110.4 154.4 C 122.7 149.0 138.3 151.6 147.3 161.7 C 152.8 168.0 152.2 177.3 149.7 184.7 C 146.4 194.3 140.2 202.5 135.5 211.4 C 131.5 219.8 126.1 228.3 126.8 238.0 C 126.9 242.3 131.1 245.1 135.0 245.4 C 140.2 245.9 144.8 242.7 148.6 239.6 C 158.4 231.2 163.5 218.9 166.8 206.8 C 168.7 198.2 170.9 189.7 171.5 180.9 C 171.7 177.9 171.9 174.9 172.8 172.0 C 175.2 164.6 182.7 160.0 190.0 158.8 C 195.6 158.1 201.4 157.3 206.9 159.1 C 211.4 160.7 216.0 163.2 218.8 167.3 C 220.8 170.1 221.0 173.6 221.5 176.9 C 234.4 172.5 246.8 166.7 258.2 159.1 C 262.5 156.2 266.3 152.5 271.1 150.2 M 271.0 160.9 C 261.1 168.7 249.9 174.5 238.4 179.5 C 233.2 181.8 227.2 182.9 223.0 187.0 C 219.9 190.9 221.9 196.7 225.5 199.5 C 228.8 202.7 233.6 203.2 237.9 203.6 C 235.1 207.9 232.2 212.3 229.8 216.9 C 223.5 229.0 217.5 241.4 213.1 254.3 C 212.0 257.8 210.3 261.6 211.8 265.2 C 214.8 271.3 222.1 274.7 228.7 273.6 C 231.9 273.0 234.5 270.9 236.9 268.9 C 246.8 260.1 256.9 251.5 267.3 243.3 C 269.1 241.8 271.0 240.3 272.2 238.3 C 273.6 234.8 272.5 230.7 269.9 228.2 C 266.8 224.8 262.4 223.6 258.1 222.6 C 261.8 215.7 266.2 209.2 270.8 202.8 C 276.8 194.3 283.5 186.2 290.5 178.5 C 292.9 175.9 295.6 173.6 297.7 170.7 C 299.6 168.1 299.1 164.3 297.0 161.9 C 292.5 156.8 284.8 154.5 278.2 156.4 C 275.4 157.2 273.2 159.2 271.0 160.9 M 104.6 168.6 C 98.5 174.8 95.3 183.1 89.7 189.6 C 84.7 195.4 79.0 200.4 72.7 204.7 C 70.6 206.2 68.4 207.6 66.7 209.6 C 64.2 212.3 64.4 216.7 66.7 219.4 C 70.1 223.6 75.5 226.1 80.9 225.8 C 84.3 225.7 87.2 224.0 90.1 222.4 C 88.2 228.4 87.2 234.8 87.8 241.1 C 88.2 246.9 90.6 252.4 93.9 257.1 C 100.2 265.9 110.2 271.5 120.6 274.1 C 140.5 278.0 162.8 273.1 177.6 258.6 C 188.9 248.1 196.9 234.5 202.1 220.0 C 206.4 206.0 210.3 191.7 210.5 176.9 C 210.4 174.6 210.5 172.0 208.8 170.2 C 205.3 166.5 199.9 165.6 195.0 166.1 C 190.0 166.4 185.0 169.2 182.9 173.8 C 181.5 177.7 181.6 181.9 181.1 185.9 C 179.4 202.9 175.2 220.2 165.7 234.7 C 160.9 241.9 154.3 247.9 146.3 251.4 C 139.5 254.9 131.0 254.6 124.5 250.6 C 120.0 248.0 116.3 243.3 116.2 238.0 C 115.9 229.7 119.3 221.8 122.6 214.4 C 127.5 202.9 136.2 193.2 140.1 181.2 C 141.6 176.4 142.1 170.4 138.6 166.4 C 135.2 162.6 130.2 160.0 125.0 159.8 C 117.4 159.8 109.9 163.1 104.6 168.6 Z" />
<path fill="#ffffff" stroke="#ffffff" stroke-width="0.09375" opacity="1.00" d=" M 271.0 160.9 C 273.2 159.2 275.4 157.2 278.2 156.4 C 284.8 154.5 292.5 156.8 297.0 161.9 C 299.1 164.3 299.6 168.1 297.7 170.7 C 295.6 173.6 292.9 175.9 290.5 178.5 C 283.5 186.2 276.8 194.3 270.8 202.8 C 266.2 209.2 261.8 215.7 258.1 222.6 C 262.4 223.6 266.8 224.8 269.9 228.2 C 272.5 230.7 273.6 234.8 272.2 238.3 C 271.0 240.3 269.1 241.8 267.3 243.3 C 256.9 251.5 246.8 260.1 236.9 268.9 C 234.5 270.9 231.9 273.0 228.7 273.6 C 222.1 274.7 214.8 271.3 211.8 265.2 C 210.3 261.6 212.0 257.8 213.1 254.3 C 217.5 241.4 223.5 229.0 229.8 216.9 C 232.2 212.3 235.1 207.9 237.9 203.6 C 233.6 203.2 228.8 202.7 225.5 199.5 C 221.9 196.7 219.9 190.9 223.0 187.0 C 227.2 182.9 233.2 181.8 238.4 179.5 C 249.9 174.5 261.1 168.7 271.0 160.9 Z" />
<path fill="#ffffff" stroke="#ffffff" stroke-width="0.09375" opacity="1.00" d=" M 104.6 168.6 C 109.9 163.1 117.4 159.8 125.0 159.8 C 130.2 160.0 135.2 162.6 138.6 166.4 C 142.1 170.4 141.6 176.4 140.1 181.2 C 136.2 193.2 127.5 202.9 122.6 214.4 C 119.3 221.8 115.9 229.7 116.2 238.0 C 116.3 243.3 120.0 248.0 124.5 250.6 C 131.0 254.6 139.5 254.9 146.3 251.4 C 154.3 247.9 160.9 241.9 165.7 234.7 C 175.2 220.2 179.4 202.9 181.1 185.9 C 181.6 181.9 181.5 177.7 182.9 173.8 C 185.0 169.2 190.0 166.4 195.0 166.1 C 199.9 165.6 205.3 166.5 208.8 170.2 C 210.5 172.0 210.4 174.6 210.5 176.9 C 210.3 191.7 206.4 206.0 202.1 220.0 C 196.9 234.5 188.9 248.1 177.6 258.6 C 162.8 273.1 140.5 278.0 120.6 274.1 C 110.2 271.5 100.2 265.9 93.9 257.1 C 90.6 252.4 88.2 246.9 87.8 241.1 C 87.2 234.8 88.2 228.4 90.1 222.4 C 87.2 224.0 84.3 225.7 80.9 225.8 C 75.5 226.1 70.1 223.6 66.7 219.4 C 64.4 216.7 64.2 212.3 66.7 209.6 C 68.4 207.6 70.6 206.2 72.7 204.7 C 79.0 200.4 84.7 195.4 89.7 189.6 C 95.3 183.1 98.5 174.8 104.6 168.6 Z" />
<path fill="#ffffff" stroke="#ffffff" stroke-width="0.09375" opacity="1.00" d=" M 10.9 268.1 C 14.0 268.2 17.2 268.6 20.0 269.9 C 26.2 272.8 32.5 275.4 38.6 278.5 C 54.2 287.1 70.3 294.6 86.1 302.8 C 98.1 308.4 110.0 314.3 122.2 319.7 C 134.6 325.1 146.7 330.9 159.3 335.9 C 164.3 338.1 169.6 339.8 174.4 342.5 C 167.9 341.7 161.6 339.8 155.0 340.0 C 135.1 340.3 115.1 339.8 95.1 340.2 C 95.9 341.9 96.6 343.6 97.5 345.2 C 94.4 343.5 91.5 341.5 88.6 339.4 C 66.8 324.3 45.5 308.2 26.2 289.8 C 21.5 285.1 16.8 280.4 13.0 275.0 C 11.6 273.0 11.2 270.5 10.9 268.1 Z" />
<path fill="#ffffff" stroke="#ffffff" stroke-width="0.09375" opacity="1.00" d=" M 299.3 322.2 C 303.5 321.7 307.6 321.3 311.8 321.0 C 315.3 324.4 319.2 327.4 323.9 329.0 C 329.3 331.2 335.3 330.7 341.0 330.7 C 346.0 330.7 351.0 330.5 355.9 329.5 C 362.8 328.1 369.9 327.6 376.8 326.0 C 386.0 324.6 395.3 323.8 404.6 323.3 C 415.0 322.1 425.5 321.9 435.9 322.9 C 444.0 323.8 452.1 323.6 460.0 325.0 C 472.1 326.9 484.4 328.6 496.0 332.9 C 501.2 334.5 506.6 335.8 511.5 338.3 C 515.4 340.3 520.0 341.3 523.1 344.5 C 514.5 346.2 505.8 346.9 497.1 347.6 C 490.7 348.1 484.5 350.1 478.1 350.8 C 463.6 352.0 449.5 355.8 435.1 357.6 C 424.6 360.0 413.9 361.3 403.3 363.5 C 396.3 365.5 389.0 366.3 382.0 368.1 C 375.3 369.7 368.4 370.6 361.7 372.6 C 351.4 375.0 341.0 376.9 330.8 379.9 C 327.9 380.7 325.0 381.5 322.0 381.4 C 318.6 381.2 315.4 380.0 312.2 379.1 C 303.7 376.9 295.3 374.2 286.8 372.1 C 271.9 367.7 257.1 362.8 242.3 357.8 C 227.9 353.2 213.8 347.8 199.6 342.6 C 196.9 341.7 194.4 340.5 191.9 339.2 C 197.7 337.8 203.7 337.3 209.5 335.7 C 221.6 333.4 233.9 331.8 246.0 329.1 C 256.1 327.4 266.4 326.8 276.5 324.8 C 284.0 323.3 291.7 323.0 299.3 322.2 Z" />
<path fill="#ffffff" stroke="#ffffff" stroke-width="0.09375" opacity="1.00" d=" M 95.1 340.2 C 115.1 339.8 135.1 340.3 155.0 340.0 C 161.6 339.8 167.9 341.7 174.4 342.5 C 179.0 343.3 183.2 345.8 187.7 347.3 C 197.0 350.6 206.2 354.5 215.6 357.6 C 229.5 362.9 243.8 367.1 257.9 372.0 C 269.5 375.4 281.0 379.4 292.8 382.4 C 301.5 384.6 310.0 387.4 318.7 389.5 C 329.1 392.3 339.7 394.5 350.1 397.2 C 357.4 399.1 364.9 400.1 372.2 401.9 C 384.0 404.7 396.0 406.6 408.0 408.4 C 417.9 410.4 428.0 411.5 438.2 412.5 C 457.1 413.6 476.6 414.7 494.9 408.9 C 504.1 405.8 513.0 401.6 520.9 395.9 C 529.7 389.9 537.7 382.2 542.7 372.7 C 545.4 367.5 546.6 361.3 545.2 355.6 C 544.1 351.7 541.0 348.8 539.4 345.1 C 539.4 343.8 539.4 342.5 539.3 341.2 C 560.9 340.8 582.4 341.2 604.0 341.0 C 607.6 341.0 611.3 340.7 614.9 341.2 C 617.6 341.6 620.0 343.0 622.3 344.3 C 623.7 345.6 624.2 347.5 624.8 349.3 C 626.6 355.0 628.4 360.9 628.4 367.0 C 628.5 374.0 628.8 381.0 627.1 387.9 C 624.4 400.6 618.9 412.7 611.1 423.1 C 599.0 440.1 581.4 452.9 561.8 459.9 C 540.1 467.6 517.0 471.1 494.0 470.7 C 481.6 470.8 469.3 470.1 457.0 469.5 C 451.2 469.2 445.6 468.3 439.9 467.5 C 415.7 465.2 391.8 460.1 368.0 454.8 C 361.3 453.5 354.7 451.3 348.0 449.9 C 315.5 441.5 283.2 432.0 251.6 420.5 C 219.2 409.0 187.3 396.0 156.6 380.4 C 137.1 370.4 118.2 359.1 99.8 347.2 C 98.9 346.6 98.1 346.0 97.5 345.2 C 96.6 343.6 95.9 341.9 95.1 340.2 Z" />
<path fill="#ffffff" stroke="#ffffff" stroke-width="0.09375" opacity="1.00" d=" M 99.0 362.9 C 100.9 362.3 102.8 361.6 104.8 361.4 C 108.3 362.6 111.1 365.0 114.2 366.8 C 138.2 381.2 163.2 394.1 188.9 405.2 C 196.3 408.3 203.7 411.1 210.9 414.7 C 203.5 417.6 195.9 420.1 188.4 422.6 C 176.4 427.2 164.1 431.1 152.2 436.1 C 128.1 445.3 104.2 455.2 80.7 465.9 C 77.8 467.1 74.6 468.7 71.5 467.5 C 69.8 466.2 68.5 464.5 67.2 462.8 C 60.3 453.2 53.9 443.2 49.6 432.2 C 43.8 419.5 40.8 405.8 39.2 392.1 C 39.1 389.3 38.6 386.3 39.6 383.6 C 41.6 382.0 44.1 381.2 46.4 380.3 C 58.5 375.9 70.8 372.1 83.0 367.9 C 88.3 366.1 93.7 364.8 99.0 362.9 Z" />
</svg>
