<?xml version="1.0" encoding="UTF-8" ?>
<!DOCTYPE svg PUBLIC "-//W3C//DTD SVG 1.1//EN" "http://www.w3.org/Graphics/SVG/1.1/DTD/svg11.dtd">
<svg width="1634pt" height="556pt" viewBox="0 0 1634 556" version="1.1" xmlns="http://www.w3.org/2000/svg">
<path fill="#ffffff" stroke="#ffffff" stroke-width="0.09375" opacity="1.00" d=" M 261.3 150.9 C 316.9 143.0 372.7 135.2 428.4 127.5 C 428.5 176.7 428.4 225.9 428.4 275.1 C 372.7 275.2 317.0 275.3 261.3 275.1 C 261.3 233.7 261.2 192.3 261.3 150.9 Z" />
<path fill="#ffffff" stroke="#ffffff" stroke-width="0.09375" opacity="1.00" d=" M 128.4 169.4 C 171.0 163.5 213.6 157.4 256.3 151.6 C 256.4 192.8 256.4 233.9 256.3 275.1 C 213.6 275.1 171.0 275.3 128.3 275.0 C 128.4 239.8 128.3 204.6 128.4 169.4 Z" />
<path fill="#ffffff" stroke="#ffffff" stroke-width="0.09375" opacity="1.00" d=" M 1049.0 177.1 C 1055.8 177.1 1062.7 177.0 1069.6 177.1 C 1069.5 240.6 1069.6 304.1 1069.6 367.6 C 1062.7 367.7 1055.9 367.6 1049.0 367.7 C 1048.7 360.3 1049.0 353.0 1048.9 345.6 C 1042.7 355.5 1034.1 364.3 1022.7 367.9 C 1005.5 373.4 984.8 371.5 970.9 359.1 C 958.4 348.1 952.4 331.4 951.2 315.1 C 949.8 295.3 952.7 274.1 964.8 257.8 C 978.8 237.6 1007.1 230.6 1029.5 239.4 C 1037.8 242.7 1043.9 249.5 1048.9 256.6 C 1049.0 230.1 1048.8 203.6 1049.0 177.1 M 1001.4 254.9 C 982.6 259.7 973.1 279.9 972.4 297.9 C 971.0 314.7 973.9 334.0 987.5 345.5 C 998.6 354.7 1015.3 355.4 1027.9 348.9 C 1041.8 341.4 1049.2 325.4 1048.9 310.0 C 1048.5 299.4 1050.2 288.4 1047.0 278.1 C 1041.4 259.5 1019.7 249.1 1001.4 254.9 Z" />
<path fill="#ffffff" stroke="#ffffff" stroke-width="0.09375" opacity="1.00" d=" M 775.3 184.1 C 780.1 182.7 785.8 183.9 789.2 187.8 C 794.2 192.8 794.0 202.0 788.6 206.7 C 782.9 212.4 771.8 211.4 767.6 204.2 C 763.1 197.0 766.9 186.2 775.3 184.1 Z" />
<path fill="#ffffff" stroke="#ffffff" stroke-width="0.09375" opacity="1.00" d=" M 518.3 187.5 C 526.1 187.3 533.8 187.4 541.5 187.4 C 555.6 237.6 569.1 288.0 583.5 338.1 C 598.1 287.9 612.5 237.6 627.2 187.4 C 634.0 187.4 640.8 187.4 647.6 187.4 C 660.5 234.9 673.5 282.3 686.4 329.7 C 687.2 332.6 687.6 335.6 689.2 338.1 C 702.6 287.9 715.8 237.6 729.3 187.4 C 736.9 187.4 744.5 187.4 752.1 187.4 C 735.8 246.4 718.8 305.1 702.4 364.1 C 701.8 365.4 701.9 367.9 699.9 367.6 C 692.1 367.7 684.3 367.7 676.5 367.6 C 663.0 320.0 649.8 272.2 636.1 224.7 C 622.3 272.2 609.1 320.0 595.6 367.6 C 587.4 367.7 579.2 367.6 571.1 367.7 C 553.3 307.7 535.9 247.6 518.3 187.5 Z" />
<path fill="#ffffff" stroke="#ffffff" stroke-width="0.09375" opacity="1.00" d=" M 869.4 237.7 C 884.5 233.7 902.7 235.3 914.1 246.9 C 924.8 258.0 927.7 274.1 927.6 289.0 C 927.6 315.2 927.6 341.4 927.6 367.6 C 920.7 367.7 913.9 367.6 907.0 367.7 C 906.8 344.8 907.0 321.9 906.9 299.0 C 907.0 287.6 906.7 275.4 900.6 265.4 C 892.2 251.3 871.6 250.3 858.8 258.7 C 848.1 265.7 842.0 278.2 841.5 290.8 C 841.1 316.4 841.8 342.1 841.2 367.8 C 834.4 367.6 827.7 367.7 820.9 367.7 C 820.6 324.8 820.8 281.9 820.8 238.9 C 827.6 238.9 834.5 238.9 841.4 239.0 C 841.6 246.1 841.2 253.2 841.6 260.3 C 848.0 250.0 857.4 240.9 869.4 237.7 Z" />
<path fill="#ffffff" stroke="#ffffff" stroke-width="0.09375" opacity="1.00" d=" M 1147.4 236.8 C 1165.4 234.1 1185.5 236.1 1200.1 247.9 C 1214.7 259.3 1221.5 278.0 1222.3 296.1 C 1224.1 318.7 1217.4 343.5 1198.9 357.9 C 1178.5 373.7 1148.4 374.8 1125.8 363.0 C 1109.2 353.6 1098.7 335.6 1096.6 316.9 C 1094.2 297.1 1096.8 275.5 1109.1 259.2 C 1118.2 246.9 1132.4 239.0 1147.4 236.8 M 1148.5 254.7 C 1131.3 258.3 1119.7 274.7 1117.8 291.5 C 1115.3 309.7 1117.5 331.1 1132.3 343.7 C 1145.0 354.6 1164.3 355.7 1179.3 349.2 C 1193.7 342.5 1200.2 326.0 1201.0 311.0 C 1202.1 295.3 1200.5 277.7 1189.7 265.4 C 1179.7 253.9 1162.7 251.5 1148.5 254.7 Z" />
<path fill="#ffffff" stroke="#ffffff" stroke-width="0.09375" opacity="1.00" d=" M 1449.5 237.3 C 1463.1 234.3 1477.9 235.5 1490.5 241.6 C 1491.7 248.3 1490.7 255.6 1491.0 262.5 C 1480.8 255.5 1468.2 252.1 1456.0 253.9 C 1449.4 254.9 1442.9 258.8 1440.4 265.1 C 1437.5 272.7 1439.7 282.6 1447.1 286.9 C 1460.8 295.7 1478.2 299.0 1489.4 311.6 C 1502.2 326.5 1498.1 352.1 1481.4 362.3 C 1462.5 374.1 1437.1 373.3 1417.8 363.0 C 1417.8 355.7 1417.7 348.3 1417.8 340.9 C 1431.0 351.6 1449.6 356.6 1465.9 350.7 C 1477.3 346.6 1479.1 329.4 1469.7 322.3 C 1456.7 312.3 1439.4 309.2 1427.3 297.7 C 1418.6 289.6 1416.6 276.6 1418.8 265.4 C 1422.0 250.8 1435.4 240.5 1449.5 237.3 Z" />
<path fill="#ffffff" stroke="#ffffff" stroke-width="0.09375" opacity="1.00" d=" M 769.2 239.0 C 776.1 238.9 783.0 238.9 789.9 239.0 C 789.9 281.9 790.0 324.8 789.9 367.7 C 783.0 367.7 776.1 367.7 769.2 367.7 C 769.1 324.8 769.2 281.9 769.2 239.0 Z" />
<path fill="#ffffff" stroke="#ffffff" stroke-width="0.09375" opacity="1.00" d=" M 1229.8 239.0 C 1237.0 238.9 1244.3 238.7 1251.5 239.1 C 1261.0 273.9 1270.3 308.7 1280.2 343.3 C 1291.5 308.8 1301.7 273.9 1312.3 239.1 C 1318.7 238.8 1325.2 238.8 1331.6 239.1 C 1341.0 273.8 1350.5 308.6 1360.3 343.2 C 1370.9 308.8 1379.3 273.6 1389.2 238.9 C 1396.0 238.9 1402.8 238.9 1409.6 239.0 C 1396.6 281.9 1383.9 324.8 1370.9 367.7 C 1363.8 367.6 1356.6 367.7 1349.5 367.6 C 1339.9 334.2 1330.3 300.7 1320.6 267.3 C 1309.9 300.7 1299.8 334.3 1289.0 367.7 C 1282.2 367.6 1275.3 367.7 1268.5 367.6 C 1255.6 324.7 1242.5 281.9 1229.8 239.0 Z" />
<path fill="#ffffff" stroke="#ffffff" stroke-width="0.09375" opacity="1.00" d=" M 128.3 280.1 C 171.0 280.0 213.6 280.1 256.3 280.1 C 256.4 321.2 256.4 362.4 256.3 403.5 C 213.6 397.7 171.0 391.6 128.4 385.7 C 128.3 350.5 128.4 315.3 128.3 280.1 Z" />
<path fill="#ffffff" stroke="#ffffff" stroke-width="0.09375" opacity="1.00" d=" M 261.2 280.1 C 316.9 280.0 372.7 280.1 428.4 280.1 C 428.5 329.2 428.4 378.4 428.4 427.5 C 372.7 419.9 316.9 412.1 261.3 404.2 C 261.2 362.8 261.3 321.5 261.2 280.1 Z" />
</svg>
